<svg xmlns="http://www.w3.org/2000/svg"><style>:root svg:not(:target){display:none}</style><svg fill="none" id="arrow" viewBox="0 0 16 15"><path fill-rule="evenodd" clip-rule="evenodd" d="M8 0a1 1 0 0 1 1 1v10.086l4.657-4.657a1 1 0 0 1 1.414 1.414l-6.364 6.364a1 1 0 0 1-1.414 0L.93 7.843A1 1 0 0 1 2.343 6.43L7 11.086V1a1 1 0 0 1 1-1Z" fill="#AB76B4"></path></svg><svg fill="none" id="barbell-icon" viewBox="0 0 26 20"><path fill-rule="evenodd" clip-rule="evenodd" d="M22 .2a.8.8 0 0 1 .8.8v5.4h.4V4a.8.8 0 0 1 1.6 0v2.4h.2a.6.6 0 1 1 0 1.2h-.2V11a.8.8 0 0 1-1.6 0V7.6h-.4V12a.8.8 0 0 1-1.6 0V7.6h-1.6V19a.6.6 0 1 1-1.2 0V7.6H8.6V19a.6.6 0 1 1-1.2 0V7.6H5.8V12a.8.8 0 0 1-1.6 0V7.6h-.4V10a.8.8 0 0 1-1.6 0V7.6H1a.6.6 0 0 1 0-1.2h1.2V4a.8.8 0 1 1 1.6 0v2.4h.4V1a.8.8 0 1 1 1.6 0v5.4h1.6V2a.6.6 0 0 1 1.2 0v4.4h9.8V2a.6.6 0 1 1 1.2 0v4.4h1.6V1a.8.8 0 0 1 .8-.8Zm-12 15a.8.8 0 0 0 0 1.6h7a.8.8 0 0 0 0-1.6h-7Z" fill="#000"></path></svg><svg viewBox="0 0 17 14" id="connect-icon"><path fill-rule="evenodd" d="M2 0h12.653a2 2 0 0 1 2 2v11.078l-1.803-2.173a4 4 0 0 0-3.077-1.445H2a2 2 0 0 1-2-2V2a2 2 0 0 1 2-2Zm2.302 6.103c.635 0 1.149-.52 1.149-1.163 0-.642-.514-1.162-1.149-1.162-.634 0-1.148.52-1.148 1.162 0 .642.514 1.163 1.148 1.163ZM8.896 4.94c0 .642-.515 1.163-1.149 1.163S6.6 5.583 6.6 4.94c0-.642.514-1.162 1.148-1.162.634 0 1.149.52 1.149 1.162Zm2.3 1.163c.634 0 1.148-.52 1.148-1.163 0-.642-.514-1.162-1.149-1.162-.634 0-1.148.52-1.148 1.162 0 .642.514 1.163 1.148 1.163Z"></path></svg><svg viewBox="0 0 82 11" id="decoration-divider-basic"><path fill-rule="evenodd" clip-rule="evenodd" d="M4.456.132h-.672L.964 10.08h.672L4.456.132Zm2.668 0h.672l-2.82 9.948h-.672L7.124.132Zm4.012 0h-.672l-2.82 9.948h.672l2.82-9.948Zm2.668 0h.672l-2.82 9.948h-.672l2.82-9.948Zm4.011 0h-.672l-2.82 9.948h.672l2.82-9.948Zm2.668 0h.672l-2.82 9.948h-.672l2.82-9.948Zm4.012 0h-.672l-2.82 9.948h.672l2.82-9.948Zm2.668 0h.672l-2.82 9.948h-.672l2.82-9.948Zm4.012 0h-.672l-2.82 9.948h.672l2.82-9.948Zm2.668 0h.672l-2.82 9.948h-.672l2.82-9.948Zm4.011 0h-.672l-2.82 9.948h.672l2.82-9.948Zm2.668 0h.672l-2.82 9.948h-.672l2.82-9.948Zm4.012 0h-.672l-2.82 9.948h.672l2.82-9.948Zm2.668 0h.672l-2.82 9.948h-.672l2.82-9.948Zm4.012 0h-.672l-2.82 9.948h.672l2.82-9.948Zm2.668 0h.672l-2.82 9.948h-.672l2.82-9.948Zm4.012 0h-.672l-2.82 9.948h.672l2.82-9.948Zm2.668 0h.672l-2.82 9.948h-.672l2.82-9.948Zm4.011 0h-.672l-2.82 9.948h.672l2.82-9.948Zm2.668 0h.672l-2.82 9.948h-.672l2.82-9.948Zm4.012 0h-.672l-2.82 9.948h.672l2.82-9.948Zm2.668 0h.672l-2.82 9.948H71.1L73.92.132Zm4.012 0h-.672l-2.82 9.948h.672l2.82-9.948Zm3.34 0H80.6l-2.82 9.948h.671l2.82-9.948Z"></path></svg><svg fill="none" id="decoration-divider-duble" viewBox="0 0 111 13"><path d="M109.453.654h.784l-3.29 11.606h-.784l3.29-11.606ZM105.557.654h.784l-3.29 11.606h-.784l3.29-11.606ZM101.66.654h.784l-3.29 11.606h-.784L101.66.654ZM97.764.654h.784l-3.29 11.606h-.784L97.764.654ZM93.867.654h.784l-3.29 11.606h-.784L93.867.654ZM89.97.654h.785l-3.29 11.606h-.784L89.97.654ZM86.074.654h.784l-3.29 11.606h-.784L86.074.654ZM82.178.654h.784l-3.29 11.606h-.784L82.178.654ZM78.281.654h.784l-3.29 11.606h-.784L78.281.654ZM74.385.654h.784l-3.29 11.606h-.784L74.385.654Z" fill="#fff"></path><path d="M39.316.654h.784L36.81 12.26h-.784L39.316.654ZM35.42.654h.784l-3.29 11.606h-.784L35.42.654ZM31.523.654h.784l-3.29 11.606h-.784L31.523.654ZM27.627.654h.784L25.12 12.26h-.784L27.627.654ZM23.73.654h.784l-3.29 11.606h-.784L23.73.654ZM19.834.654h.784l-3.29 11.606h-.784L19.834.654ZM15.938.654h.783l-3.29 11.606h-.783L15.938.654ZM12.041.654h.784L9.535 12.26h-.784L12.041.654ZM8.144.654h.784L5.638 12.26h-.784L8.144.654ZM4.248.654h.784L1.742 12.26H.958L4.248.654Z" fill="#656273"></path></svg><svg viewBox="0 0 95 13" fill="none" id="decoration-divider-long"><path d="M5.032.654h-.784L.958 12.26h.784L5.032.654Zm3.112 0h.784L5.638 12.26h-.784L8.144.654Zm4.681 0h-.784L8.751 12.26h.784L12.825.654Zm3.113 0h.783l-3.29 11.606h-.783L15.938.654Zm4.68 0h-.784l-3.29 11.606h.784L20.618.654Zm3.112 0h.784l-3.29 11.606h-.784L23.73.654Zm4.68 0h-.783l-3.29 11.606h.784L28.41.654Zm3.113 0h.784l-3.29 11.606h-.784L31.523.654Zm4.68 0h-.783L32.13 12.26h.784L36.204.654Zm3.113 0h.784L36.81 12.26h-.784L39.316.654Zm4.68 0h-.783l-3.29 11.606h.784L43.997.654Zm3.113 0h.784l-3.29 11.606h-.784L47.11.654Zm4.68 0h-.783l-3.29 11.606h.784L51.79.654Zm3.113 0h.784l-3.29 11.606h-.784L54.902.654Zm4.68 0H58.8l-3.29 11.606h.784L59.583.654Zm3.113 0h.784L60.19 12.26h-.784L62.695.654Zm4.68 0h-.783l-3.29 11.606h.784L67.376.654Zm3.113 0h.784l-3.29 11.606h-.784L70.488.654Zm4.68 0h-.783l-3.29 11.606h.784L75.169.654Zm3.113 0h.784l-3.29 11.606h-.784L78.281.654Zm4.68 0h-.783l-3.29 11.606h.784L82.962.654Zm3.113 0h.784l-3.29 11.606h-.784L86.074.654Zm4.68 0h-.783L86.68 12.26h.784L90.755.654Zm3.897 0h-.784l-3.29 11.606h.784L94.651.654Z"></path></svg><svg viewBox="0 0 41 13" id="decoration-divider-short"><path d="M5.032.654h-.784L.958 12.26h.784L5.032.654Zm3.112 0h.784L5.638 12.26h-.784L8.144.654Zm4.681 0h-.784L8.751 12.26h.784L12.825.654Zm3.113 0h.783l-3.29 11.606h-.783L15.938.654Zm4.68 0h-.784l-3.29 11.606h.784L20.618.654Zm3.112 0h.784l-3.29 11.606h-.784L23.73.654Zm4.68 0h-.783l-3.29 11.606h.784L28.41.654Zm3.113 0h.784l-3.29 11.606h-.784L31.523.654Zm4.68 0h-.783L32.13 12.26h.784L36.204.654Zm3.897 0h-.784l-3.29 11.606h.784L40.1.654Z"></path></svg><svg viewBox="0 0 184 182" id="decoration-img"><path d="M83.065 170.022c-3.115-3.505-5.191-7.011-6.749-11.685a39.115 39.115 0 0 1-2.596-14.023V36.809c0-5.258 1.039-9.933 2.596-14.022 1.558-4.09 4.153-8.18 6.75-11.686.518-.584 1.557-1.168 2.076-2.337-2.596-2.337-5.192-4.09-8.307-5.843C72.682 1.17 69.048 0 64.375 0H32.189c-4.673 0-8.826 1.169-12.46 2.921-3.634 1.753-7.268 4.675-10.383 7.596-3.115 3.506-5.192 7.011-6.75 11.685A39.115 39.115 0 0 0 0 36.225v108.089c0 5.259 1.038 9.933 2.596 14.023 1.557 4.09 4.153 8.18 6.749 11.685 3.115 3.506 6.23 5.843 10.383 7.596 3.634 1.753 7.787 2.921 12.46 2.921h32.188c4.153 0 8.306-1.168 12.46-2.921 3.114-1.169 5.71-3.506 8.306-5.843-.52 0-1.039-1.168-2.077-1.753ZM66.452 139.64c0 5.843-4.153 10.517-9.345 10.517H41.013c-5.191 0-9.344-4.674-9.344-10.517V41.483c0-5.843 4.153-10.517 9.344-10.517h15.575c5.192 0 9.345 4.674 9.345 10.517v98.157h.52ZM180.67 22.787c-1.557-4.09-4.153-8.18-6.749-11.685-3.115-3.506-6.23-5.843-10.383-7.596-4.153-1.753-7.787-2.921-12.46-2.921H118.89c-4.672 0-8.825 1.168-12.459 2.921-3.635 1.753-7.269 4.674-10.383 7.595-3.115 3.506-5.192 7.012-6.75 11.686a39.116 39.116 0 0 0-2.595 14.022V144.9c0 5.258 1.038 9.933 2.595 14.023 1.558 4.089 4.154 8.179 6.75 11.685 3.114 3.505 6.229 5.843 10.383 7.595 3.634 1.753 7.787 2.922 12.459 2.922h32.188c4.153 0 8.307-1.169 12.46-2.922 4.153-1.752 7.268-4.674 10.383-7.595 3.115-3.506 5.192-7.011 6.749-11.685a39.108 39.108 0 0 0 2.596-14.023V36.809c0-5.258-1.038-9.932-2.596-14.022ZM152.636 139.64c0 5.842-4.154 10.516-9.345 10.516h-16.094c-5.192 0-9.345-4.674-9.345-10.516V41.484c0-5.843 4.153-10.517 9.345-10.517h16.094c5.191 0 9.345 4.674 9.345 10.517v98.157Z"></path></svg><svg fill="none" id="double-arrow" viewBox="0 0 9 9"><path fill-rule="evenodd" clip-rule="evenodd" d="M8.445 4.597a.6.6 0 1 1-.89.806L4.388 1.911 1.46 5.387a.6.6 0 1 1-.918-.774L4.354.09l4.09 4.508Zm0 3a.6.6 0 1 1-.89.806L4.388 4.911 1.46 8.387a.6.6 0 1 1-.918-.774L4.354 3.09l4.09 4.508Z" fill="#AB76B4"></path></svg><svg viewBox="0 0 15 15" id="filter-icon"><path d="M13.422 5.767A3.078 3.078 0 0 0 11.919 0a3.08 3.08 0 0 0-1.497 5.77v8.966h3V5.767Zm-8.844 3.42a3.078 3.078 0 0 1-1.499 5.77 3.08 3.08 0 0 1-1.5-5.77V.22h3v8.967Z"></path></svg><svg viewBox="0 0 259 103" id="frame"><path fill-rule="evenodd" d="M26 0C11.64 0 0 11.64 0 26v50.557c0 14.36 11.64 26 26 26h207c14.359 0 26-11.64 26-26V26c0-14.36-11.641-26-26-26H26Zm210.403 20.28H22.018v61.418h214.385V20.279Z"></path></svg><svg fill="none" id="iron-icon" viewBox="0 0 26 8"><path fill-rule="evenodd" clip-rule="evenodd" d="M5.62 1.884a.2.2 0 0 1 .163-.084H20.71a.2.2 0 0 1 .17.095l3.44 5.528a.8.8 0 0 0 1.358-.845l-3.44-5.529A1.8 1.8 0 0 0 20.711.2H5.783a1.8 1.8 0 0 0-1.467.757L.348 6.537a.8.8 0 1 0 1.304.927l3.968-5.58ZM7 3.2a.8.8 0 1 0 0 1.6h13a.8.8 0 1 0 0-1.6H7Z" fill="#000"></path></svg><svg fill="none" id="logo" viewBox="0 0 210 108"><path d="M0 0h25.46v10.179H10.203v10.254h12.755V30.61H10.204v20.383H0V0ZM29.78 0h10.18v50.994H29.78V0ZM43.437 10.204V0H74.05v10.179H63.795v40.815H53.616v-40.79H43.437ZM97.663 50.994 88.51 26.46v24.534H78.331V0h11.18l9.203 24.61V0h10.179v50.994h-11.23ZM113.792 0h25.459v10.179h-15.28v10.254h12.755V30.61h-12.755v10.18h15.28v10.203h-25.459V0ZM163.928 50.994H153.75c-1.401 0-2.726-.275-3.977-.8a10.308 10.308 0 0 1-3.251-2.176c-.925-.925-1.651-2-2.176-3.251a9.997 9.997 0 0 1-.8-3.977v-5.102h10.179v5.102h10.178v-2.976l-18.857-18.907c-1.025-1.025-1.525-2.226-1.525-3.626v-5.077c0-1.4.275-2.726.8-3.977a10.31 10.31 0 0 1 2.176-3.25A10.033 10.033 0 0 1 149.748.8a9.997 9.997 0 0 1 3.977-.8h10.178c1.351 0 2.651.275 3.902.8 1.25.525 2.326 1.25 3.251 2.176.925.925 1.651 2 2.201 3.251.55 1.226.825 2.551.825 3.977v5.102h-10.179v-5.102h-10.178v2.976l18.857 18.907c1 1.025 1.525 2.226 1.525 3.626v5.102c0 1.4-.275 2.726-.825 3.977-.55 1.225-1.276 2.325-2.201 3.25a10.034 10.034 0 0 1-3.251 2.177 9.968 9.968 0 0 1-3.902.775ZM199.822 50.994h-10.179c-1.401 0-2.726-.275-3.977-.8a10.32 10.32 0 0 1-3.251-2.176c-.925-.925-1.65-2-2.176-3.251a9.997 9.997 0 0 1-.8-3.977v-5.102h10.179v5.102h10.179v-2.976L180.94 18.907c-1.026-1.025-1.526-2.226-1.526-3.626v-5.077c0-1.4.275-2.726.8-3.977a10.327 10.327 0 0 1 2.176-3.25A10.044 10.044 0 0 1 185.641.8a9.997 9.997 0 0 1 3.977-.8h10.179c1.35 0 2.651.275 3.901.8a10.022 10.022 0 0 1 3.251 2.176 10.5 10.5 0 0 1 2.201 3.251c.55 1.226.825 2.551.825 3.977v5.102h-10.178v-5.102h-10.179v2.976l18.857 18.907c1 1.025 1.525 2.226 1.525 3.626v5.102c0 1.4-.275 2.726-.825 3.977-.55 1.225-1.275 2.325-2.201 3.25-.925.926-2 1.651-3.251 2.177a9.875 9.875 0 0 1-3.901.775ZM10.255 97.052h15.281v10.179H.076v-50.97h10.18v40.79ZM111.488 56.311h10.179v5.102c0 .875-.2 1.676-.6 2.376l-9.404 18.032 9.404 17.956c.4.751.6 1.551.6 2.376v5.102h-10.179v-3.851l-8.653-16.531h-1.526v20.357H91.131V56.311h10.178V76.67h1.526l8.653-16.531V56.31ZM55.445 104.255a10.038 10.038 0 0 1-2.176-3.252 9.991 9.991 0 0 1-.8-3.976V66.44c0-1.4.275-2.725.8-3.976a10.307 10.307 0 0 1 2.176-3.251c.2-.2.425-.4.65-.6a11.014 11.014 0 0 0-2.601-1.601 9.99 9.99 0 0 0-3.901-.8h-10.18c-1.4 0-2.725.275-3.976.8a10.305 10.305 0 0 0-3.25 2.176c-.926.925-1.651 2-2.177 3.251a9.994 9.994 0 0 0-.8 3.976v30.612c0 1.4.275 2.726.8 3.976a10.311 10.311 0 0 0 2.176 3.252c.925.925 2 1.65 3.251 2.175a9.98 9.98 0 0 0 3.977.801h10.178c1.351 0 2.651-.275 3.902-.801.975-.4 1.826-.95 2.6-1.6-.224-.15-.45-.35-.65-.575Zm-5.427-8.554a3.02 3.02 0 0 1-3.026 3.027h-5.077a3.02 3.02 0 0 1-3.026-3.027V67.866a3.02 3.02 0 0 1 3.026-3.026h5.077a3.02 3.02 0 0 1 3.026 3.026v27.835ZM86.48 62.464c-.55-1.226-1.276-2.326-2.201-3.251-.925-.926-2-1.651-3.251-2.176a9.993 9.993 0 0 0-3.902-.8H66.947c-1.4 0-2.726.275-3.976.8a10.308 10.308 0 0 0-3.251 2.176c-.926.925-1.65 2-2.176 3.25a9.994 9.994 0 0 0-.8 3.977v30.612c0 1.4.275 2.726.8 3.976a10.297 10.297 0 0 0 2.176 3.251c.925.926 2 1.651 3.25 2.176 1.226.525 2.552.8 3.977.8h10.18c1.35 0 2.65-.275 3.9-.8a10.02 10.02 0 0 0 3.252-2.176c.925-.925 1.65-2 2.2-3.251.55-1.225.826-2.55.826-3.976V66.44c0-1.4-.275-2.726-.825-3.976ZM77.55 95.7a3.02 3.02 0 0 1-3.026 3.026h-5.077a3.02 3.02 0 0 1-3.026-3.026V67.866a3.02 3.02 0 0 1 3.026-3.026h5.077a3.02 3.02 0 0 1 3.026 3.026V95.7ZM156.91 81.684c0-2.55 1.15-4.802 2.926-6.352-1.501-1.3-3.427-2.126-5.577-2.126a8.497 8.497 0 0 0-8.504 8.503 8.497 8.497 0 0 0 8.504 8.503c2.15 0 4.076-.825 5.577-2.125-1.776-1.601-2.926-3.852-2.926-6.403Z" fill="#fff"></path><path d="M167.595 90.438c4.682 0 8.478-3.83 8.478-8.553 0-4.724-3.796-8.554-8.478-8.554s-8.478 3.83-8.478 8.553c0 4.724 3.796 8.554 8.478 8.554Z" fill="#fff"></path></svg><svg fill="none" id="number-slider" viewBox="0 0 107 41"><path fill-rule="evenodd" clip-rule="evenodd" d="M0 12C0 5.373 5.373 0 12 0h66.2c6.627 0 12 5.373 12 12v17c0 6.627-5.373 12-12 12H12C5.373 41 0 35.627 0 29V12Zm8.945-3.8h72.31v25.346H8.944V8.2ZM106.778 29c0 6.575-5.289 11.916-11.844 11.999v-7.453h2.898V8.2h-2.898V.001c6.555.083 11.844 5.423 11.844 11.999v17Z" fill="#fff"></path></svg><svg viewBox="0 0 29 30" id="phone-icon"><path d="m20.695 19.998-.751-1.465a2.246 2.246 0 0 0-3.693-.448.561.561 0 0 1-.922-.108l-3.073-5.889a.553.553 0 0 1 .407-.803 2.214 2.214 0 0 0 1.6-3.261l-.693-1.25a1.605 1.605 0 0 0-2.466-.424L9.926 7.39a6 6 0 0 0-1.288 7.376l2.768 5.057a6 6 0 0 0 6.717 2.94l1.485-.37a1.68 1.68 0 0 0 1.087-2.396Z"></path></svg><svg viewBox="0 0 8 8" fill="#fff" id="plus-icon"><path fill-rule="evenodd" clip-rule="evenodd" d="M4.5 1a.5.5 0 0 0-1 0v2.5H1a.5.5 0 0 0 0 1h2.5V7a.5.5 0 0 0 1 0V4.5H7a.5.5 0 0 0 0-1H4.5V1Z"></path></svg><svg fill="none" id="pro-label" viewBox="0 0 44 68"><path d="M8.725 38.887H4.362v28.952H0V0h8.725c.585 0 1.142.107 1.671.322.548.214 1.02.509 1.416.884.397.375.709.813.935 1.313.246.5.368 1.037.368 1.608V34.76c0 .571-.122 1.107-.368 1.608-.226.5-.538.938-.935 1.313-.396.375-.868.67-1.416.884a4.406 4.406 0 0 1-1.671.322Zm0-34.76H4.362V34.76h4.363V4.127ZM28.558 4.127v53.555c0 .857-.236 1.617-.709 2.278-.453.643-1.076 1.134-1.87 1.474l2.579 5.065V68h-4.391v-.563l-2.833-5.628h-1.53V68h-4.362V0h8.725c.585 0 1.142.107 1.671.322.548.214 1.02.509 1.417.884.396.375.708.813.934 1.313.246.5.369 1.037.369 1.608Zm-4.391 0h-4.362v53.555h4.362V4.127ZM39.61 68h-4.363a4.48 4.48 0 0 1-3.088-1.206 4.144 4.144 0 0 1-.934-1.313 3.85 3.85 0 0 1-.34-1.608V4.127c0-.571.113-1.107.34-1.608.226-.5.538-.938.934-1.313A4.48 4.48 0 0 1 35.247 0h4.362c.586 0 1.143.107 1.672.322.547.214 1.02.509 1.416.884.396.375.708.813.935 1.313.245.5.368 1.037.368 1.608v59.746c0 .571-.123 1.107-.368 1.608-.227.5-.538.938-.935 1.313s-.869.67-1.416.884a4.405 4.405 0 0 1-1.672.322Zm0-63.873h-4.363v59.746h4.362V4.127Z" fill="#AB76B4"></path></svg><svg viewBox="0 0 6 9" id="simple-arrow-right"><path d="M.556.597a.6.6 0 0 1 .847-.041l4.508 4.09L1.387 8.46a.6.6 0 1 1-.774-.918L4.09 4.613.597 1.444A.6.6 0 0 1 .556.597Z"></path></svg><svg viewBox="0 0 9 6" fill="#AB76B4" id="simple-arrow"><path d="M8.403.556a.6.6 0 0 1 .041.847l-4.09 4.508L.54 1.387A.6.6 0 0 1 1.46.613L4.387 4.09 7.556.597a.6.6 0 0 1 .847-.041Z"></path></svg><svg fill="none" id="simple-double-arrow" viewBox="0 0 9 9"><path fill-rule="evenodd" clip-rule="evenodd" d="M8.445 4.597a.6.6 0 1 1-.89.806L4.388 1.911 1.46 5.387a.6.6 0 1 1-.918-.774L4.354.09l4.09 4.508Zm0 3a.6.6 0 1 1-.89.806L4.388 4.911 1.46 8.387a.6.6 0 1 1-.918-.774L4.354 3.09l4.09 4.508Z" fill="#AB76B4"></path></svg><svg viewBox="0 0 107 41" id="slide-1"><path fill-rule="evenodd" d="M12 0C5.373 0 0 5.373 0 12v17c0 6.627 5.373 12 12 12h66.2c6.627 0 12-5.373 12-12V12c0-6.627-5.373-12-12-12H12Zm69.254 8.2H8.945v25.346h72.31V8.2ZM94.934 41c6.555-.083 11.844-5.424 11.844-11.999V12c0-6.576-5.289-11.916-11.844-11.999v8.2h2.898v25.345h-2.898v7.453ZM62.132 24.92v-9.26c0-.427-.087-.827-.26-1.2a3.04 3.04 0 0 0-1.66-1.64 2.964 2.964 0 0 0-1.18-.24h-3.08c-.427 0-.827.08-1.2.24a3.097 3.097 0 0 0-1.64 1.64c-.16.373-.24.773-.24 1.2v9.26c0 .427.08.827.24 1.2a3.097 3.097 0 0 0 1.64 1.64c.373.16.773.24 1.2.24h3.08c.413 0 .807-.08 1.18-.24a3.04 3.04 0 0 0 1.66-1.64c.173-.373.26-.773.26-1.2Zm-3.1-9.26v.9l-3.08 3.1v-4h3.08Zm-3.08 9.26v-.9l3.08-3.1v4h-3.08Zm13.904-12.34h-4.62v3.08h1.54v9.26h-1.54V28h6.16v-3.08h-1.54V12.58Z"></path></svg><svg viewBox="0 0 125 41" id="slide-2"><path fill-rule="evenodd" d="M0 12C0 5.373 5.373 0 12 0h66.2c6.627 0 12 5.373 12 12v17c0 6.627-5.373 12-12 12H12C5.373 41 0 35.627 0 29V12Zm8.945-3.8h72.31v25.346H8.944V8.2ZM106.778 29c0 6.575-5.289 11.916-11.844 11.999v-7.453h2.898V8.2h-2.898V.001c6.555.083 11.844 5.423 11.844 11.999v17Zm6.156 11.999c6.555-.083 11.844-5.424 11.844-11.999V12c0-6.576-5.289-11.916-11.844-11.999v8.2h2.899v25.345h-2.899v7.453ZM62.132 24.92v-9.26c0-.427-.087-.827-.26-1.2a3.04 3.04 0 0 0-1.66-1.64 2.964 2.964 0 0 0-1.18-.24h-3.08c-.427 0-.827.08-1.2.24a3.097 3.097 0 0 0-1.64 1.64c-.16.373-.24.773-.24 1.2v9.26c0 .427.08.827.24 1.2a3.097 3.097 0 0 0 1.64 1.64c.373.16.773.24 1.2.24h3.08c.413 0 .807-.08 1.18-.24a3.04 3.04 0 0 0 1.66-1.64c.173-.373.26-.773.26-1.2Zm-3.1-9.26v.9l-3.08 3.1v-4h3.08Zm-3.08 9.26v-.9l3.08-3.1v4h-3.08Zm12.784 0 5.4-6.74c.226-.293.34-.62.34-.98v-1.54c0-.427-.087-.827-.26-1.2a3.041 3.041 0 0 0-1.66-1.64 2.965 2.965 0 0 0-1.18-.24h-3.08c-.427 0-.827.08-1.2.24a3.096 3.096 0 0 0-1.64 1.64c-.16.373-.24.773-.24 1.2v1.54h3.08v-1.54h3.08v1l-5.82 7.3c-.227.267-.34.587-.34.96V28h9.26v-3.08h-5.74Z"></path></svg><svg viewBox="0 0 143 41" id="slide-3"><path fill-rule="evenodd" d="M0 12C0 5.373 5.373 0 12 0h66.2c6.627 0 12 5.373 12 12v17c0 6.627-5.373 12-12 12H12C5.373 41 0 35.627 0 29V12Zm8.945-3.8h72.31v25.346H8.944V8.2ZM106.778 29c0 6.575-5.289 11.916-11.844 11.999v-7.453h2.898V8.2h-2.898V.001c6.555.083 11.844 5.423 11.844 11.999v17Zm6.156 11.999c6.555-.083 11.844-5.424 11.844-11.999V12c0-6.576-5.289-11.916-11.844-11.999v8.2h2.899v25.345h-2.899v7.453ZM142.778 29c0 6.575-5.289 11.916-11.844 11.999v-7.453h2.899V8.2h-2.899V.001c6.555.083 11.844 5.423 11.844 11.999v17Zm-68.722-8.7c.133.227.233.473.3.74.08.253.12.52.12.8v3.08c0 .427-.087.827-.26 1.2a3.041 3.041 0 0 1-1.66 1.64c-.374.16-.767.24-1.18.24h-3.08c-.427 0-.827-.08-1.2-.24a3.096 3.096 0 0 1-1.64-1.64 3.014 3.014 0 0 1-.24-1.2v-1.54h3.08v1.54h3.08v-3.08h-3.08v-3.1h3.08v-3.08h-3.08v1.54h-3.08v-1.54c0-.427.08-.827.24-1.2a3.096 3.096 0 0 1 1.64-1.64c.373-.16.773-.24 1.2-.24h3.08c.413 0 .806.08 1.18.24a3.041 3.041 0 0 1 1.66 1.64c.173.373.26.773.26 1.2v3.08c0 .293-.04.573-.12.84a2.842 2.842 0 0 1-.3.72Zm-11.924 4.62v-9.26c0-.427-.087-.827-.26-1.2a3.04 3.04 0 0 0-1.66-1.64 2.964 2.964 0 0 0-1.18-.24h-3.08c-.427 0-.827.08-1.2.24a3.097 3.097 0 0 0-1.64 1.64c-.16.373-.24.773-.24 1.2v9.26c0 .427.08.827.24 1.2a3.097 3.097 0 0 0 1.64 1.64c.373.16.773.24 1.2.24h3.08c.413 0 .807-.08 1.18-.24a3.04 3.04 0 0 0 1.66-1.64c.173-.373.26-.773.26-1.2Zm-3.1-9.26v.9l-3.08 3.1v-4h3.08Zm-3.08 9.26v-.9l3.08-3.1v4h-3.08Z"></path></svg><svg viewBox="0 0 259 103" id="text-frame"><path fill-rule="evenodd" d="M26 .007c-14.36 0-26 11.64-26 26v50.557c0 14.36 11.64 26 26 26h207c14.359 0 26-11.64 26-26V26.007c0-14.36-11.641-26-26-26H26Zm210.403 20.28H22.018v61.417h214.385V20.286Z"></path></svg><svg viewBox="0 0 28 22" id="treadmill-icon"><path fill-rule="evenodd" d="M7.8 1a.8.8 0 1 0-1.6 0v5a.8.8 0 0 0 1.6 0V1ZM3.214 13.793A7.108 7.108 0 0 1 10 8.8a.8.8 0 0 0 0-1.6 8.708 8.708 0 0 0-8.313 6.117l-.45 1.445a.8.8 0 0 0 1.527.476l.45-1.445ZM1.8 19A1.2 1.2 0 0 1 3 17.8h6a1.2 1.2 0 0 1 0 2.4H3A1.2 1.2 0 0 1 1.8 19ZM3 16.2a2.8 2.8 0 1 0 0 5.6h6c.952 0 1.792-.474 2.298-1.2h15.22a1.082 1.082 0 0 0 .007-2.164c-2.83-.014-6.62-.03-9.748-.035a620.96 620.96 0 0 0-3.995.004c-.409.003-.76.006-1.043.01a2.801 2.801 0 0 0-2.74-2.215H3ZM23.65 21a.35.35 0 0 1 .35-.35h2a.35.35 0 1 1 0 .7h-2a.35.35 0 0 1-.35-.35ZM11.2 8a.8.8 0 0 1 .8-.8h3a.8.8 0 0 1 0 1.6h-3a.8.8 0 0 1-.8-.8Z"></path></svg></svg>