<svg width="44" height="68" viewBox="0 0 44 68" fill="none" xmlns="http://www.w3.org/2000/svg">
<path d="M8.72469 38.887H4.36235V67.8386H0V0H8.72469C9.31011 0 9.86721 0.107203 10.396 0.321609C10.9436 0.536017 11.4157 0.830827 11.8123 1.20604C12.2089 1.58125 12.5205 2.019 12.7471 2.51928C12.9926 3.01956 13.1154 3.55558 13.1154 4.12733V34.7596C13.1154 35.3314 12.9926 35.8674 12.7471 36.3677C12.5205 36.868 12.2089 37.3057 11.8123 37.6809C11.4157 38.0561 10.9436 38.3509 10.396 38.5654C9.86721 38.7798 9.31011 38.887 8.72469 38.887ZM8.72469 4.12733H4.36235V34.7596H8.72469V4.12733Z" fill="#AB76B4"/>
<path d="M28.5577 4.12733V57.6817C28.5577 58.5393 28.3216 59.2987 27.8495 59.9598C27.3963 60.603 26.7731 61.0943 25.9799 61.4338L28.5577 66.4992V68H24.167V67.4372L21.3343 61.809H19.8047V68H15.4423V0H24.167C24.7524 0 25.3095 0.107203 25.8383 0.321609C26.386 0.536017 26.8581 0.830827 27.2546 1.20604C27.6512 1.58125 27.9628 2.019 28.1894 2.51928C28.4349 3.01956 28.5577 3.55558 28.5577 4.12733ZM24.167 4.12733H19.8047V57.6817H24.167V4.12733Z" fill="#AB76B4"/>
<path d="M39.6093 68H35.247C34.6427 68 34.0761 67.8928 33.5474 67.6784C33.0186 67.464 32.5559 67.1692 32.1594 66.794C31.7628 66.4188 31.4512 65.981 31.2246 65.4807C30.9979 64.9804 30.8846 64.4444 30.8846 63.8727V4.12733C30.8846 3.55558 30.9979 3.01956 31.2246 2.51928C31.4512 2.019 31.7628 1.58125 32.1594 1.20604C32.5559 0.830827 33.0186 0.536017 33.5474 0.321609C34.0761 0.107203 34.6427 0 35.247 0H39.6093C40.1948 0 40.7518 0.107203 41.2806 0.321609C41.8283 0.536017 42.3004 0.830827 42.697 1.20604C43.0935 1.58125 43.4051 2.019 43.6317 2.51928C43.8772 3.01956 44 3.55558 44 4.12733V63.8727C44 64.4444 43.8772 64.9804 43.6317 65.4807C43.4051 65.981 43.0935 66.4188 42.697 66.794C42.3004 67.1692 41.8283 67.464 41.2806 67.6784C40.7518 67.8928 40.1948 68 39.6093 68ZM39.6093 4.12733H35.247V63.8727H39.6093V4.12733Z" fill="#AB76B4"/>
</svg>
