<svg width="107" height="41" viewBox="0 0 107 41" fill="none" xmlns="http://www.w3.org/2000/svg">
<path fill-rule="evenodd" clip-rule="evenodd" d="M12 0C5.37258 0 0 5.37258 0 12V29C0 35.6274 5.37259 41 12 41H78.2C84.8274 41 90.2 35.6274 90.2 29V12C90.2 5.37258 84.8274 0 78.2 0H12ZM81.2544 8.2002H8.94531V33.5457H81.2544V8.2002ZM94.9336 40.999C101.489 40.9158 106.778 35.5755 106.778 29V12C106.778 5.42448 101.489 0.0842201 94.9336 0.000976562V8.20018H97.8325V33.5456H94.9336V40.999ZM62.132 24.92V15.66C62.132 15.2333 62.0453 14.8333 61.872 14.46C61.712 14.0866 61.492 13.76 61.212 13.48C60.932 13.2 60.5987 12.98 60.212 12.82C59.8387 12.66 59.4453 12.58 59.032 12.58H55.952C55.5253 12.58 55.1253 12.66 54.752 12.82C54.3787 12.98 54.052 13.2 53.772 13.48C53.492 13.76 53.272 14.0866 53.112 14.46C52.952 14.8333 52.872 15.2333 52.872 15.66V24.92C52.872 25.3466 52.952 25.7466 53.112 26.12C53.272 26.4933 53.492 26.82 53.772 27.1C54.052 27.38 54.3787 27.6 54.752 27.76C55.1253 27.92 55.5253 28 55.952 28H59.032C59.4453 28 59.8387 27.92 60.212 27.76C60.5987 27.6 60.932 27.38 61.212 27.1C61.492 26.82 61.712 26.4933 61.872 26.12C62.0453 25.7466 62.132 25.3466 62.132 24.92ZM59.032 15.66V16.56L55.952 19.66V15.66H59.032ZM55.952 24.92V24.02L59.032 20.92V24.92H55.952ZM69.8558 12.58H65.2358V15.66H66.7758V24.92H65.2358V28H71.3958V24.92H69.8558V12.58Z" fill="white"/>
</svg>
