<svg xmlns="http://www.w3.org/2000/svg"><style>:root svg:not(:target){display:none}</style><svg fill="none" id="arrow" viewBox="0 0 16 15"><path fill-rule="evenodd" clip-rule="evenodd" d="M8 0a1 1 0 0 1 1 1v10.086l4.657-4.657a1 1 0 0 1 1.414 1.414l-6.364 6.364a1 1 0 0 1-1.414 0L.93 7.843A1 1 0 0 1 2.343 6.43L7 11.086V1a1 1 0 0 1 1-1Z" fill="#AB76B4"></path></svg><svg fill="none" id="barbell-icon" viewBox="0 0 26 20"><path fill-rule="evenodd" clip-rule="evenodd" d="M22 .2a.8.8 0 0 1 .8.8v5.4h.4V4a.8.8 0 0 1 1.6 0v2.4h.2a.6.6 0 1 1 0 1.2h-.2V11a.8.8 0 0 1-1.6 0V7.6h-.4V12a.8.8 0 0 1-1.6 0V7.6h-1.6V19a.6.6 0 1 1-1.2 0V7.6H8.6V19a.6.6 0 1 1-1.2 0V7.6H5.8V12a.8.8 0 0 1-1.6 0V7.6h-.4V10a.8.8 0 0 1-1.6 0V7.6H1a.6.6 0 0 1 0-1.2h1.2V4a.8.8 0 1 1 1.6 0v2.4h.4V1a.8.8 0 1 1 1.6 0v5.4h1.6V2a.6.6 0 0 1 1.2 0v4.4h9.8V2a.6.6 0 1 1 1.2 0v4.4h1.6V1a.8.8 0 0 1 .8-.8Zm-12 15a.8.8 0 0 0 0 1.6h7a.8.8 0 0 0 0-1.6h-7Z" fill="#000"></path></svg><svg viewBox="0 0 17 14" id="connect-icon"><path fill-rule="evenodd" d="M2 0h12.653a2 2 0 0 1 2 2v11.078l-1.803-2.173a4 4 0 0 0-3.077-1.445H2a2 2 0 0 1-2-2V2a2 2 0 0 1 2-2Zm2.302 6.103c.635 0 1.149-.52 1.149-1.163 0-.642-.514-1.162-1.149-1.162-.634 0-1.148.52-1.148 1.162 0 .642.514 1.163 1.148 1.163ZM8.896 4.94c0 .642-.515 1.163-1.149 1.163S6.6 5.583 6.6 4.94c0-.642.514-1.162 1.148-1.162.634 0 1.149.52 1.149 1.162Zm2.3 1.163c.634 0 1.148-.52 1.148-1.163 0-.642-.514-1.162-1.149-1.162-.634 0-1.148.52-1.148 1.162 0 .642.514 1.163 1.148 1.163Z"></path></svg><svg viewBox="0 0 17 16" id="consultation-icon"><path fill-rule="evenodd" d="m9.419 11.684-.36-.44H8.49c-2.116 0-3.984-.63-5.294-1.59C1.886 8.694 1.2 7.466 1.2 6.222c0-1.243.685-2.471 1.996-3.432C4.506 1.83 6.374 1.2 8.49 1.2c2.117 0 3.985.63 5.295 1.59 1.31.961 1.996 2.189 1.996 3.432v.064l.007.063c.104.989-.45 2.753-1.868 4.533a11.682 11.682 0 0 1-3.768 3.094c.032-.734-.134-1.56-.733-2.292ZM8.187 16a12.001 12.001 0 0 0 1.646-.553c4.743-1.983 7.421-6.645 7.148-9.225C16.981 2.786 13.18 0 8.491 0 3.8 0 0 2.786 0 6.222c0 3.437 3.801 6.222 8.49 6.222.518.632.541 1.405.373 2.093A4.364 4.364 0 0 1 8.187 16ZM5 8a1 1 0 1 0 0-2 1 1 0 0 0 0 2Zm9-1a1 1 0 1 1-2 0 1 1 0 0 1 2 0ZM9 8a1 1 0 1 0 0-2 1 1 0 0 0 0 2Z"></path></svg><svg fill="none" id="crumb" viewBox="0 0 9 12"><path d="m9 6-9 5.196V.804L9 6Z" fill="#D9D9D9"></path></svg><svg viewBox="0 0 82 11" id="decoration-divider-basic"><path fill-rule="evenodd" clip-rule="evenodd" d="M4.456.132h-.672L.964 10.08h.672L4.456.132Zm2.668 0h.672l-2.82 9.948h-.672L7.124.132Zm4.012 0h-.672l-2.82 9.948h.672l2.82-9.948Zm2.668 0h.672l-2.82 9.948h-.672l2.82-9.948Zm4.011 0h-.672l-2.82 9.948h.672l2.82-9.948Zm2.668 0h.672l-2.82 9.948h-.672l2.82-9.948Zm4.012 0h-.672l-2.82 9.948h.672l2.82-9.948Zm2.668 0h.672l-2.82 9.948h-.672l2.82-9.948Zm4.012 0h-.672l-2.82 9.948h.672l2.82-9.948Zm2.668 0h.672l-2.82 9.948h-.672l2.82-9.948Zm4.011 0h-.672l-2.82 9.948h.672l2.82-9.948Zm2.668 0h.672l-2.82 9.948h-.672l2.82-9.948Zm4.012 0h-.672l-2.82 9.948h.672l2.82-9.948Zm2.668 0h.672l-2.82 9.948h-.672l2.82-9.948Zm4.012 0h-.672l-2.82 9.948h.672l2.82-9.948Zm2.668 0h.672l-2.82 9.948h-.672l2.82-9.948Zm4.012 0h-.672l-2.82 9.948h.672l2.82-9.948Zm2.668 0h.672l-2.82 9.948h-.672l2.82-9.948Zm4.011 0h-.672l-2.82 9.948h.672l2.82-9.948Zm2.668 0h.672l-2.82 9.948h-.672l2.82-9.948Zm4.012 0h-.672l-2.82 9.948h.672l2.82-9.948Zm2.668 0h.672l-2.82 9.948H71.1L73.92.132Zm4.012 0h-.672l-2.82 9.948h.672l2.82-9.948Zm3.34 0H80.6l-2.82 9.948h.671l2.82-9.948Z"></path></svg><svg fill="none" id="decoration-divider-duble" viewBox="0 0 111 13"><path d="M109.453.654h.784l-3.29 11.606h-.784l3.29-11.606ZM105.557.654h.784l-3.29 11.606h-.784l3.29-11.606ZM101.66.654h.784l-3.29 11.606h-.784L101.66.654ZM97.764.654h.784l-3.29 11.606h-.784L97.764.654ZM93.867.654h.784l-3.29 11.606h-.784L93.867.654ZM89.97.654h.785l-3.29 11.606h-.784L89.97.654ZM86.074.654h.784l-3.29 11.606h-.784L86.074.654ZM82.178.654h.784l-3.29 11.606h-.784L82.178.654ZM78.281.654h.784l-3.29 11.606h-.784L78.281.654ZM74.385.654h.784l-3.29 11.606h-.784L74.385.654Z" fill="#fff"></path><path d="M39.316.654h.784L36.81 12.26h-.784L39.316.654ZM35.42.654h.784l-3.29 11.606h-.784L35.42.654ZM31.523.654h.784l-3.29 11.606h-.784L31.523.654ZM27.627.654h.784L25.12 12.26h-.784L27.627.654ZM23.73.654h.784l-3.29 11.606h-.784L23.73.654ZM19.834.654h.784l-3.29 11.606h-.784L19.834.654ZM15.938.654h.783l-3.29 11.606h-.783L15.938.654ZM12.041.654h.784L9.535 12.26h-.784L12.041.654ZM8.144.654h.784L5.638 12.26h-.784L8.144.654ZM4.248.654h.784L1.742 12.26H.958L4.248.654Z" fill="#656273"></path></svg><svg viewBox="0 0 95 13" fill="none" id="decoration-divider-long"><path d="M5.032.654h-.784L.958 12.26h.784L5.032.654Zm3.112 0h.784L5.638 12.26h-.784L8.144.654Zm4.681 0h-.784L8.751 12.26h.784L12.825.654Zm3.113 0h.783l-3.29 11.606h-.783L15.938.654Zm4.68 0h-.784l-3.29 11.606h.784L20.618.654Zm3.112 0h.784l-3.29 11.606h-.784L23.73.654Zm4.68 0h-.783l-3.29 11.606h.784L28.41.654Zm3.113 0h.784l-3.29 11.606h-.784L31.523.654Zm4.68 0h-.783L32.13 12.26h.784L36.204.654Zm3.113 0h.784L36.81 12.26h-.784L39.316.654Zm4.68 0h-.783l-3.29 11.606h.784L43.997.654Zm3.113 0h.784l-3.29 11.606h-.784L47.11.654Zm4.68 0h-.783l-3.29 11.606h.784L51.79.654Zm3.113 0h.784l-3.29 11.606h-.784L54.902.654Zm4.68 0H58.8l-3.29 11.606h.784L59.583.654Zm3.113 0h.784L60.19 12.26h-.784L62.695.654Zm4.68 0h-.783l-3.29 11.606h.784L67.376.654Zm3.113 0h.784l-3.29 11.606h-.784L70.488.654Zm4.68 0h-.783l-3.29 11.606h.784L75.169.654Zm3.113 0h.784l-3.29 11.606h-.784L78.281.654Zm4.68 0h-.783l-3.29 11.606h.784L82.962.654Zm3.113 0h.784l-3.29 11.606h-.784L86.074.654Zm4.68 0h-.783L86.68 12.26h.784L90.755.654Zm3.897 0h-.784l-3.29 11.606h.784L94.651.654Z"></path></svg><svg viewBox="0 0 41 13" id="decoration-divider-short"><path d="M5.032.654h-.784L.958 12.26h.784L5.032.654Zm3.112 0h.784L5.638 12.26h-.784L8.144.654Zm4.681 0h-.784L8.751 12.26h.784L12.825.654Zm3.113 0h.783l-3.29 11.606h-.783L15.938.654Zm4.68 0h-.784l-3.29 11.606h.784L20.618.654Zm3.112 0h.784l-3.29 11.606h-.784L23.73.654Zm4.68 0h-.783l-3.29 11.606h.784L28.41.654Zm3.113 0h.784l-3.29 11.606h-.784L31.523.654Zm4.68 0h-.783L32.13 12.26h.784L36.204.654Zm3.897 0h-.784l-3.29 11.606h.784L40.1.654Z"></path></svg><svg viewBox="0 0 184 182" id="decoration-img"><path d="M83.065 170.022c-3.115-3.505-5.191-7.011-6.749-11.685a39.115 39.115 0 0 1-2.596-14.023V36.809c0-5.258 1.039-9.933 2.596-14.022 1.558-4.09 4.153-8.18 6.75-11.686.518-.584 1.557-1.168 2.076-2.337-2.596-2.337-5.192-4.09-8.307-5.843C72.682 1.17 69.048 0 64.375 0H32.189c-4.673 0-8.826 1.169-12.46 2.921-3.634 1.753-7.268 4.675-10.383 7.596-3.115 3.506-5.192 7.011-6.75 11.685A39.115 39.115 0 0 0 0 36.225v108.089c0 5.259 1.038 9.933 2.596 14.023 1.557 4.09 4.153 8.18 6.749 11.685 3.115 3.506 6.23 5.843 10.383 7.596 3.634 1.753 7.787 2.921 12.46 2.921h32.188c4.153 0 8.306-1.168 12.46-2.921 3.114-1.169 5.71-3.506 8.306-5.843-.52 0-1.039-1.168-2.077-1.753ZM66.452 139.64c0 5.843-4.153 10.517-9.345 10.517H41.013c-5.191 0-9.344-4.674-9.344-10.517V41.483c0-5.843 4.153-10.517 9.344-10.517h15.575c5.192 0 9.345 4.674 9.345 10.517v98.157h.52ZM180.67 22.787c-1.557-4.09-4.153-8.18-6.749-11.685-3.115-3.506-6.23-5.843-10.383-7.596-4.153-1.753-7.787-2.921-12.46-2.921H118.89c-4.672 0-8.825 1.168-12.459 2.921-3.635 1.753-7.269 4.674-10.383 7.595-3.115 3.506-5.192 7.012-6.75 11.686a39.116 39.116 0 0 0-2.595 14.022V144.9c0 5.258 1.038 9.933 2.595 14.023 1.558 4.089 4.154 8.179 6.75 11.685 3.114 3.505 6.229 5.843 10.383 7.595 3.634 1.753 7.787 2.922 12.459 2.922h32.188c4.153 0 8.307-1.169 12.46-2.922 4.153-1.752 7.268-4.674 10.383-7.595 3.115-3.506 5.192-7.011 6.749-11.685a39.108 39.108 0 0 0 2.596-14.023V36.809c0-5.258-1.038-9.932-2.596-14.022ZM152.636 139.64c0 5.842-4.154 10.516-9.345 10.516h-16.094c-5.192 0-9.345-4.674-9.345-10.516V41.484c0-5.843 4.153-10.517 9.345-10.517h16.094c5.191 0 9.345 4.674 9.345 10.517v98.157Z"></path></svg><svg fill="none" id="double-arrow-down" viewBox="0 0 12 13"><path d="M.395 6.073a.8.8 0 1 1 1.21-1.046L6.162 10.3l4.214-5.25a.8.8 0 0 1 1.248 1L6.208 12.8.395 6.073Zm0-4a.8.8 0 1 1 1.21-1.046L6.162 6.3l4.214-5.25a.8.8 0 0 1 1.248 1L6.208 8.8.395 2.073Z" fill="#AB76B4"></path></svg><svg fill="none" id="double-arrow-up" viewBox="0 0 12 13"><path fill-rule="evenodd" clip-rule="evenodd" d="M11.605 7.477a.8.8 0 1 1-1.21 1.046L5.838 3.25 1.624 8.5a.8.8 0 0 1-1.248-1L5.792.75l5.813 6.727Zm0 4a.8.8 0 1 1-1.21 1.046L5.838 7.25 1.624 12.5a.8.8 0 1 1-1.248-1l5.416-6.75 5.813 6.727Z" fill="#AB76B4"></path></svg><svg fill="none" id="double-arrow" viewBox="0 0 9 9"><path fill-rule="evenodd" clip-rule="evenodd" d="M8.445 4.597a.6.6 0 1 1-.89.806L4.388 1.911 1.46 5.387a.6.6 0 1 1-.918-.774L4.354.09l4.09 4.508Zm0 3a.6.6 0 1 1-.89.806L4.388 4.911 1.46 8.387a.6.6 0 1 1-.918-.774L4.354 3.09l4.09 4.508Z" fill="#AB76B4"></path></svg><svg viewBox="0 0 15 15" id="filter-icon"><path d="M13.422 5.767A3.078 3.078 0 0 0 11.919 0a3.08 3.08 0 0 0-1.497 5.77v8.966h3V5.767Zm-8.844 3.42a3.078 3.078 0 0 1-1.499 5.77 3.08 3.08 0 0 1-1.5-5.77V.22h3v8.967Z"></path></svg><svg viewBox="0 0 259 103" id="frame"><path fill-rule="evenodd" d="M26 0C11.64 0 0 11.64 0 26v50.557c0 14.36 11.64 26 26 26h207c14.359 0 26-11.64 26-26V26c0-14.36-11.641-26-26-26H26Zm210.403 20.28H22.018v61.418h214.385V20.279Z"></path></svg><svg viewBox="0 0 18 17" id="in-time-icon"><path fill-rule="evenodd" d="M8.264 1.2a2.9 2.9 0 1 0 0 5.8 2.9 2.9 0 0 0 0-5.8Zm-4.1 2.9a4.1 4.1 0 1 1 6.707 3.165c2.043.48 3.813 1.548 5.14 2.623 1.696 1.373 1.416 3.768-.028 5.146a.6.6 0 1 1-.828-.868c1.059-1.01 1.095-2.54.101-3.346-1.786-1.446-4.31-2.777-7.114-2.605-2.886.177-5.074 1.654-6.458 3.087-.728.754-.62 1.997.26 2.873a.6.6 0 0 1-.847.85C-.106 13.83-.49 11.827.821 10.468c1.154-1.194 2.84-2.444 5.011-3.067A4.094 4.094 0 0 1 4.164 4.1Zm2.015 9.3c-.53.698-.767 1.577-.817 2.244a.6.6 0 0 1-1.196-.088c.061-.833.352-1.954 1.058-2.882.724-.953 1.87-1.674 3.54-1.674 1.679 0 2.77.728 3.465 1.685.669.92.953 2.028 1.12 2.785a.6.6 0 0 1-1.17.26c-.166-.743-.41-1.636-.92-2.34-.486-.668-1.228-1.19-2.495-1.19-1.274 0-2.074.529-2.585 1.2Z"></path></svg><svg fill="none" id="iron-icon" viewBox="0 0 26 8"><path fill-rule="evenodd" clip-rule="evenodd" d="M5.62 1.884a.2.2 0 0 1 .163-.084H20.71a.2.2 0 0 1 .17.095l3.44 5.528a.8.8 0 0 0 1.358-.845l-3.44-5.529A1.8 1.8 0 0 0 20.711.2H5.783a1.8 1.8 0 0 0-1.467.757L.348 6.537a.8.8 0 1 0 1.304.927l3.968-5.58ZM7 3.2a.8.8 0 1 0 0 1.6h13a.8.8 0 1 0 0-1.6H7Z" fill="#000"></path></svg><svg viewBox="0 0 19 14" id="lifting-icon"><path d="M11.79 0h6.11a.9.9 0 1 1 0 1.8h-4.31v5.625H7.638V13.8H.9a.9.9 0 1 1 0-1.8h4.937V5.625h5.954V0Z"></path></svg><svg viewBox="0 0 18 22" id="loading-icon"><path fill-rule="evenodd" d="M8.5 1.6a2.9 2.9 0 1 0 0 5.8 2.9 2.9 0 0 0 0-5.8ZM4.4 4.5a4.1 4.1 0 1 1 6.707 3.165c2.042.48 3.812 1.548 5.14 2.623 1.695 1.373 1.416 3.768-.028 5.146a.6.6 0 0 1-.828-.868c1.059-1.01 1.095-2.54.101-3.345-1.786-1.446-4.31-2.777-7.114-2.606-2.886.177-5.074 1.654-6.458 3.087-.728.755-.621 1.998.26 2.873a.6.6 0 0 1-.847.85C.13 14.23-.255 12.228 1.057 10.87c1.154-1.195 2.84-2.444 5.011-3.067A4.094 4.094 0 0 1 4.4 4.5ZM5 15h8v6H5v-6Zm-1 0a1 1 0 0 1 1-1h8a1 1 0 0 1 1 1v6a1 1 0 0 1-1 1H5a1 1 0 0 1-1-1v-6Zm2 2.5a.5.5 0 0 0 0 1h6a.5.5 0 1 0 0-1H6Z"></path></svg><svg fill="none" id="logo-short" viewBox="0 0 42 23"><path fill-rule="evenodd" clip-rule="evenodd" d="M11.092 0c3.312 0 6.286 1.452 8.318 3.755a12.833 12.833 0 0 0-2.29 7.338c0 2.725.845 5.254 2.29 7.336a11.063 11.063 0 0 1-8.318 3.754C4.966 22.183 0 17.217 0 11.092 0 4.966 4.966 0 11.092 0Zm19.817 22.183C37.034 22.183 42 17.217 42 11.092 42 4.966 37.034 0 30.91 0c-6.127 0-11.093 4.966-11.093 11.092 0 6.125 4.966 11.09 11.092 11.09Z" fill="#F3F3F3" style="mix-blend-mode:multiply"></path></svg><svg viewBox="0 0 210 108" id="logo"><path d="M0 0h25.46v10.179H10.203v10.254h12.755V30.61H10.204v20.383H0V0ZM29.78 0h10.18v50.994H29.78V0ZM43.437 10.204V0H74.05v10.179H63.795v40.815H53.616v-40.79H43.437ZM97.663 50.994 88.51 26.46v24.534H78.331V0h11.18l9.203 24.61V0h10.179v50.994h-11.23ZM113.792 0h25.459v10.179h-15.28v10.254h12.755V30.61h-12.755v10.18h15.28v10.203h-25.459V0ZM163.928 50.994H153.75c-1.401 0-2.726-.275-3.977-.8a10.308 10.308 0 0 1-3.251-2.176c-.925-.925-1.651-2-2.176-3.251a9.997 9.997 0 0 1-.8-3.977v-5.102h10.179v5.102h10.178v-2.976l-18.857-18.907c-1.025-1.025-1.525-2.226-1.525-3.626v-5.077c0-1.4.275-2.726.8-3.977a10.31 10.31 0 0 1 2.176-3.25A10.033 10.033 0 0 1 149.748.8a9.997 9.997 0 0 1 3.977-.8h10.178c1.351 0 2.651.275 3.902.8 1.25.525 2.326 1.25 3.251 2.176.925.925 1.651 2 2.201 3.251.55 1.226.825 2.551.825 3.977v5.102h-10.179v-5.102h-10.178v2.976l18.857 18.907c1 1.025 1.525 2.226 1.525 3.626v5.102c0 1.4-.275 2.726-.825 3.977-.55 1.225-1.276 2.325-2.201 3.25a10.034 10.034 0 0 1-3.251 2.177 9.968 9.968 0 0 1-3.902.775ZM199.822 50.994h-10.179c-1.401 0-2.726-.275-3.977-.8a10.32 10.32 0 0 1-3.251-2.176c-.925-.925-1.65-2-2.176-3.251a9.997 9.997 0 0 1-.8-3.977v-5.102h10.179v5.102h10.179v-2.976L180.94 18.907c-1.026-1.025-1.526-2.226-1.526-3.626v-5.077c0-1.4.275-2.726.8-3.977a10.327 10.327 0 0 1 2.176-3.25A10.044 10.044 0 0 1 185.641.8a9.997 9.997 0 0 1 3.977-.8h10.179c1.35 0 2.651.275 3.901.8a10.022 10.022 0 0 1 3.251 2.176 10.5 10.5 0 0 1 2.201 3.251c.55 1.226.825 2.551.825 3.977v5.102h-10.178v-5.102h-10.179v2.976l18.857 18.907c1 1.025 1.525 2.226 1.525 3.626v5.102c0 1.4-.275 2.726-.825 3.977-.55 1.225-1.275 2.325-2.201 3.25-.925.926-2 1.651-3.251 2.177a9.875 9.875 0 0 1-3.901.775ZM10.255 97.052h15.281v10.179H.076v-50.97h10.18v40.79ZM111.488 56.311h10.179v5.102c0 .875-.2 1.676-.6 2.376l-9.404 18.032 9.404 17.956c.4.751.6 1.551.6 2.376v5.102h-10.179v-3.851l-8.653-16.531h-1.526v20.357H91.131V56.311h10.178V76.67h1.526l8.653-16.531V56.31ZM55.445 104.255a10.038 10.038 0 0 1-2.176-3.252 9.991 9.991 0 0 1-.8-3.976V66.44c0-1.4.275-2.725.8-3.976a10.307 10.307 0 0 1 2.176-3.251c.2-.2.425-.4.65-.6a11.014 11.014 0 0 0-2.601-1.601 9.99 9.99 0 0 0-3.901-.8h-10.18c-1.4 0-2.725.275-3.976.8a10.305 10.305 0 0 0-3.25 2.176c-.926.925-1.651 2-2.177 3.251a9.994 9.994 0 0 0-.8 3.976v30.612c0 1.4.275 2.726.8 3.976a10.311 10.311 0 0 0 2.176 3.252c.925.925 2 1.65 3.251 2.175a9.98 9.98 0 0 0 3.977.801h10.178c1.351 0 2.651-.275 3.902-.801.975-.4 1.826-.95 2.6-1.6-.224-.15-.45-.35-.65-.575Zm-5.427-8.554a3.02 3.02 0 0 1-3.026 3.027h-5.077a3.02 3.02 0 0 1-3.026-3.027V67.866a3.02 3.02 0 0 1 3.026-3.026h5.077a3.02 3.02 0 0 1 3.026 3.026v27.835ZM86.48 62.464c-.55-1.226-1.276-2.326-2.201-3.251-.925-.926-2-1.651-3.251-2.176a9.993 9.993 0 0 0-3.902-.8H66.947c-1.4 0-2.726.275-3.976.8a10.308 10.308 0 0 0-3.251 2.176c-.926.925-1.65 2-2.176 3.25a9.994 9.994 0 0 0-.8 3.977v30.612c0 1.4.275 2.726.8 3.976a10.297 10.297 0 0 0 2.176 3.251c.925.926 2 1.651 3.25 2.176 1.226.525 2.552.8 3.977.8h10.18c1.35 0 2.65-.275 3.9-.8a10.02 10.02 0 0 0 3.252-2.176c.925-.925 1.65-2 2.2-3.251.55-1.225.826-2.55.826-3.976V66.44c0-1.4-.275-2.726-.825-3.976ZM77.55 95.7a3.02 3.02 0 0 1-3.026 3.026h-5.077a3.02 3.02 0 0 1-3.026-3.026V67.866a3.02 3.02 0 0 1 3.026-3.026h5.077a3.02 3.02 0 0 1 3.026 3.026V95.7ZM156.91 81.684c0-2.55 1.15-4.802 2.926-6.352-1.501-1.3-3.427-2.126-5.577-2.126a8.497 8.497 0 0 0-8.504 8.503 8.497 8.497 0 0 0 8.504 8.503c2.15 0 4.076-.825 5.577-2.125-1.776-1.601-2.926-3.852-2.926-6.403Z"></path><path d="M167.595 90.438c4.682 0 8.478-3.83 8.478-8.553 0-4.724-3.796-8.554-8.478-8.554s-8.478 3.83-8.478 8.553c0 4.724 3.796 8.554 8.478 8.554Z"></path></svg><svg fill="none" id="number-slider" viewBox="0 0 107 41"><path fill-rule="evenodd" clip-rule="evenodd" d="M0 12C0 5.373 5.373 0 12 0h66.2c6.627 0 12 5.373 12 12v17c0 6.627-5.373 12-12 12H12C5.373 41 0 35.627 0 29V12Zm8.945-3.8h72.31v25.346H8.944V8.2ZM106.778 29c0 6.575-5.289 11.916-11.844 11.999v-7.453h2.898V8.2h-2.898V.001c6.555.083 11.844 5.423 11.844 11.999v17Z" fill="#fff"></path></svg><svg viewBox="0 0 29 30" id="phone-icon"><path d="m20.695 19.998-.751-1.465a2.246 2.246 0 0 0-3.693-.448.561.561 0 0 1-.922-.108l-3.073-5.889a.553.553 0 0 1 .407-.803 2.214 2.214 0 0 0 1.6-3.261l-.693-1.25a1.605 1.605 0 0 0-2.466-.424L9.926 7.39a6 6 0 0 0-1.288 7.376l2.768 5.057a6 6 0 0 0 6.717 2.94l1.485-.37a1.68 1.68 0 0 0 1.087-2.396Z"></path></svg><svg viewBox="0 0 8 8" fill="#fff" id="plus-icon"><path fill-rule="evenodd" clip-rule="evenodd" d="M4.5 1a.5.5 0 0 0-1 0v2.5H1a.5.5 0 0 0 0 1h2.5V7a.5.5 0 0 0 1 0V4.5H7a.5.5 0 0 0 0-1H4.5V1Z"></path></svg><svg viewBox="0 0 20 21" id="present-icon"><path fill-rule="evenodd" clip-rule="evenodd" d="M2.063 3.284C1.815 1.464 3.51-.065 5.28.527l.594.198a3.988 3.988 0 0 1 1.743 1.168L9.67 4.25l1.881-2.358A3.68 3.68 0 0 1 13.166.727l.32-.117c1.75-.637 3.47.858 3.244 2.675a3.729 3.729 0 0 1-.914 2.023H19.6v4.403h-1.242V20.6H1.642V9.71H.4V5.309h2.598a3.778 3.778 0 0 1-.935-2.024Zm3.61 2.024h3.326L6.712 2.68a2.788 2.788 0 0 0-1.218-.817L4.9 1.665c-.863-.289-1.785.45-1.648 1.458.172 1.268 1.217 2.185 2.42 2.185Zm4.688 0h2.802c1.19 0 2.22-.915 2.376-2.171.125-.996-.8-1.706-1.642-1.4l-.32.117c-.423.154-.8.426-1.088.787l-2.128 2.667ZM1.6 6.508v2.003h6.248V6.508H1.6Zm7.448 0V19.4h1.904V6.508H9.048Zm3.104 0V19.4h5.007V9.71h-4.96v-1.2h6.2V6.509h-6.247ZM7.848 19.4V9.71H2.841v9.69h5.007Z"></path></svg><svg fill="none" id="pro-label" viewBox="0 0 44 68"><path d="M8.725 38.887H4.362v28.952H0V0h8.725c.585 0 1.142.107 1.671.322.548.214 1.02.509 1.416.884.397.375.709.813.935 1.313.246.5.368 1.037.368 1.608V34.76c0 .571-.122 1.107-.368 1.608-.226.5-.538.938-.935 1.313-.396.375-.868.67-1.416.884a4.406 4.406 0 0 1-1.671.322Zm0-34.76H4.362V34.76h4.363V4.127ZM28.558 4.127v53.555c0 .857-.236 1.617-.709 2.278-.453.643-1.076 1.134-1.87 1.474l2.579 5.065V68h-4.391v-.563l-2.833-5.628h-1.53V68h-4.362V0h8.725c.585 0 1.142.107 1.671.322.548.214 1.02.509 1.417.884.396.375.708.813.934 1.313.246.5.369 1.037.369 1.608Zm-4.391 0h-4.362v53.555h4.362V4.127ZM39.61 68h-4.363a4.48 4.48 0 0 1-3.088-1.206 4.144 4.144 0 0 1-.934-1.313 3.85 3.85 0 0 1-.34-1.608V4.127c0-.571.113-1.107.34-1.608.226-.5.538-.938.934-1.313A4.48 4.48 0 0 1 35.247 0h4.362c.586 0 1.143.107 1.672.322.547.214 1.02.509 1.416.884.396.375.708.813.935 1.313.245.5.368 1.037.368 1.608v59.746c0 .571-.123 1.107-.368 1.608-.227.5-.538.938-.935 1.313s-.869.67-1.416.884a4.405 4.405 0 0 1-1.672.322Zm0-63.873h-4.363v59.746h4.362V4.127Z" fill="#AB76B4"></path></svg><svg viewBox="0 0 13 13" id="quality-icon"><path fill-rule="evenodd" d="M6.236 1.5c-.08 0-.149.057-.165.135-.079.396-.357.723-.735.865l-.768.288a1.137 1.137 0 0 1-1.082-.155.137.137 0 0 0-.179.013l-.422.422a.314.314 0 0 0-.047.384c.217.361.247.805.08 1.193l-.207.485a1.152 1.152 0 0 1-1.059.698.152.152 0 0 0-.152.152v.792c0 .122.098.22.22.22a1.22 1.22 0 0 1 1.172.884l.1.352c.115.4.028.83-.231 1.154a.284.284 0 0 0 .034.391l.414.362c.113.1.278.114.408.036a1.348 1.348 0 0 1 1.224-.083l.469.201c.403.173.69.539.762.971.023.139.143.24.283.24h.407c.17 0 .314-.125.338-.293.075-.524.45-.955.96-1.1L8.435 10a1.366 1.366 0 0 1 1.078.143.366.366 0 0 0 .446-.055l.296-.296a.273.273 0 0 0 .02-.363 1.273 1.273 0 0 1-.176-1.296l.46.197-.46-.197.189-.442c.173-.403.539-.69.971-.762a.287.287 0 0 0 .24-.283v-.589c0-.08-.057-.15-.135-.165a1.169 1.169 0 0 1-.865-.735l-.288-.768.468-.176-.468.176a1.137 1.137 0 0 1 .155-1.082l.4.3-.4-.3a.137.137 0 0 0-.013-.18l.354-.353-.354.354-.422-.423a.314.314 0 0 0-.384-.047 1.314 1.314 0 0 1-1.193.081l-.55-.235a1.183 1.183 0 0 1-.694-.856.183.183 0 0 0-.18-.147h-.695Zm-1.145-.06C5.2.892 5.68.5 6.236.5h.696c.564 0 1.05.398 1.16.951.012.06.052.109.107.133l.55.235c.093.04.199.033.285-.02a1.314 1.314 0 0 1 1.605.198l-.354.354.354-.354.422.423c.4.4.445 1.033.106 1.486a.137.137 0 0 0-.019.13l.288.768c.02.055.068.095.125.106.546.11.939.59.939 1.146v.589c0 .629-.455 1.166-1.075 1.27a.287.287 0 0 0-.217.17l-.46-.198.46.197-.189.441c-.04.093-.025.2.038.278a1.273 1.273 0 0 1-.094 1.695l-.295.296a1.366 1.366 0 0 1-1.669.205l.223-.37-.223.37a.366.366 0 0 0-.288-.038l-.138-.48.138.48-.377.108a.341.341 0 0 0-.244.28A1.341 1.341 0 0 1 6.762 12.5h-.407c-.629 0-1.166-.455-1.27-1.075a.287.287 0 0 0-.17-.217l-.467-.2.196-.46-.196.46a.348.348 0 0 0-.317.02 1.348 1.348 0 0 1-1.581-.14l-.413-.362a1.284 1.284 0 0 1-.157-1.768l.39.312-.39-.312a.284.284 0 0 0 .051-.256l-.1-.351a.22.22 0 0 0-.211-.16A1.22 1.22 0 0 1 .5 6.773V5.98c0-.636.516-1.152 1.152-1.152.06 0 .116-.036.14-.092l.207-.485a.314.314 0 0 0-.019-.285 1.314 1.314 0 0 1 .198-1.605L2.6 1.94c.4-.4 1.034-.445 1.486-.106l-.28.375.28-.375a.137.137 0 0 0 .13.019l.769-.288a.168.168 0 0 0 .106-.125l.49.098-.49-.098ZM6.5 4.5a2 2 0 1 0 0 4 2 2 0 0 0 0-4Zm-3 2a3 3 0 1 1 6 0 3 3 0 0 1-6 0Z"></path></svg><svg viewBox="0 0 14 23" id="rocket-icon"><path fill-rule="evenodd" d="m6.696.236.275.139c2.082 1.047 5.059 5.264 4.502 13.903l-.026.396-.352.181c-3.825 1.974-7.062.853-8.288-.06l-.262-.195-.019-.326c-.117-2.015-.012-5.094.51-7.831.26-1.367.63-2.684 1.15-3.75.51-1.047 1.22-1.965 2.221-2.347l.289-.11Zm-2.79 13.608c1.005.585 3.335 1.268 6.193-.06.395-7.56-2.064-11.018-3.473-11.988-.411.261-.814.755-1.182 1.511C5 4.217 4.659 5.4 4.41 6.705c-.467 2.455-.584 5.223-.503 7.139Zm-1.919.565a.7.7 0 0 1 .553.821 1.777 1.777 0 0 1-.183.468 12.258 12.258 0 0 1-.222.4c-.156.283-.3.572-.378.864-.076.285-.079.533.006.757.056.147.164.324.38.515.072-.086.143-.186.204-.298.153-.28.227-.601.143-.951a.7.7 0 0 1 1.362-.325c.18.754.007 1.43-.277 1.948a3.078 3.078 0 0 1-1.022 1.11l-.364.226-.367-.22c-.697-.42-1.149-.928-1.369-1.51-.218-.578-.174-1.142-.048-1.613.124-.465.339-.878.504-1.179l.099-.176c.042-.075.077-.138.11-.201.039-.073.051-.104.053-.107a.7.7 0 0 1 .816-.529Zm10.842.53a.7.7 0 0 0-1.37.291c.037.185.128.362.184.468.04.077.092.17.142.26l.08.14c.155.283.3.572.377.864.077.285.08.533-.005.757a1.317 1.317 0 0 1-.38.515 1.794 1.794 0 0 1-.205-.298 1.308 1.308 0 0 1-.143-.951.7.7 0 0 0-1.361-.325c-.18.754-.007 1.43.276 1.948a3.08 3.08 0 0 0 1.023 1.11l.364.226.366-.22c.698-.42 1.15-.928 1.37-1.51.218-.578.174-1.142.048-1.613-.124-.465-.339-.878-.505-1.179l-.098-.176c-.043-.075-.078-.138-.111-.201-.038-.073-.05-.104-.052-.107Zm-4.34 1.772a.7.7 0 0 1 .823.55c.504 2.537-.931 4.567-1.915 5.3l-.388.29-.407-.26c-.976-.624-1.502-1.686-1.767-2.654-.266-.974-.303-1.98-.194-2.652a.7.7 0 0 1 1.382.225c-.074.454-.056 1.258.163 2.058.163.597.418 1.124.768 1.502.618-.694 1.29-1.997.985-3.536a.7.7 0 0 1 .55-.823Z"></path></svg><svg viewBox="0 0 18 23" id="set-icon"><path fill-rule="evenodd" d="M8.5 1.6a2.9 2.9 0 1 0 0 5.8 2.9 2.9 0 0 0 0-5.8ZM4.4 4.5a4.1 4.1 0 1 1 6.707 3.165c2.042.48 3.812 1.548 5.14 2.623 1.695 1.373 1.416 3.768-.028 5.146a.6.6 0 0 1-.828-.868c1.059-1.01 1.095-2.54.101-3.345-1.786-1.446-4.31-2.777-7.114-2.606-2.886.177-5.074 1.654-6.458 3.087-.728.755-.621 1.998.26 2.873a.6.6 0 0 1-.847.85C.13 14.23-.255 12.228 1.057 10.87c1.154-1.195 2.84-2.444 5.011-3.067A4.094 4.094 0 0 1 4.4 4.5Zm4.255 8.086a.108.108 0 0 1 .105-.086h.632c.058 0 .108.04.12.097.072.362.318.665.657.81l.5.215a1.24 1.24 0 0 0 1.126-.076.24.24 0 0 1 .293.036l.384.383a.08.08 0 0 1 .007.104 1.08 1.08 0 0 0-.147 1.027l.262.698c.134.358.444.622.82.697.05.01.086.054.086.105v.536a.215.215 0 0 1-.18.212c-.408.068-.754.34-.917.72l-.172.401c-.175.408-.111.879.166 1.225a.203.203 0 0 1-.015.27l-.268.268a.287.287 0 0 1-.35.043 1.287 1.287 0 0 0-1.016-.133l-.343.097c-.48.137-.834.544-.905 1.038a.265.265 0 0 1-.262.227h-.37a.215.215 0 0 1-.212-.18 1.216 1.216 0 0 0-.72-.917l-.426-.183a1.27 1.27 0 0 0-1.154.079c-.101.06-.23.049-.318-.029l-.376-.328a.213.213 0 0 1-.026-.293c.245-.307.327-.713.22-1.09l-.092-.32a1.154 1.154 0 0 0-1.11-.837.154.154 0 0 1-.154-.155v-.72c0-.051.042-.093.093-.093.437 0 .832-.26 1.004-.662l.189-.44a1.24 1.24 0 0 0-.076-1.127.24.24 0 0 1 .036-.293l.383-.384a.08.08 0 0 1 .104-.007c.295.221.682.277 1.027.147l.698-.262c.358-.134.622-.444.697-.82ZM8.76 11.5c-.528 0-.982.373-1.086.89a.108.108 0 0 1-.067.08l-.699.262a.08.08 0 0 1-.075-.01 1.08 1.08 0 0 0-1.41.1l-.384.383a1.24 1.24 0 0 0-.187 1.515.24.24 0 0 1 .015.218l-.189.44a.093.093 0 0 1-.085.056c-.604 0-1.093.49-1.093 1.093v.72c0 .638.517 1.155 1.154 1.155.069 0 .13.045.148.111l.092.32a.213.213 0 0 1-.039.191 1.213 1.213 0 0 0 .149 1.67l.375.329a1.271 1.271 0 0 0 1.491.133.27.27 0 0 1 .246-.016l.426.182c.067.029.115.09.127.162a1.215 1.215 0 0 0 1.2 1.016h.37c.629 0 1.162-.463 1.251-1.086a.265.265 0 0 1 .19-.217l.342-.098a.287.287 0 0 1 .227.03 1.287 1.287 0 0 0 1.572-.194l.268-.268a1.202 1.202 0 0 0 .089-1.602.202.202 0 0 1-.028-.206l.172-.4a.216.216 0 0 1 .163-.128 1.215 1.215 0 0 0 1.015-1.2v-.535c0-.527-.373-.982-.89-1.086a.108.108 0 0 1-.08-.067l-.262-.698a.08.08 0 0 1 .01-.076 1.08 1.08 0 0 0-.1-1.41l-.383-.384a1.24 1.24 0 0 0-1.515-.187.24.24 0 0 1-.218.015l-.5-.214a.121.121 0 0 1-.07-.088 1.121 1.121 0 0 0-1.1-.901H8.76ZM7.227 17a1.773 1.773 0 1 1 3.546 0 1.773 1.773 0 0 1-3.546 0ZM9 14.227a2.773 2.773 0 1 0 0 5.546 2.773 2.773 0 0 0 0-5.546Z"></path></svg><svg viewBox="0 0 6 9" id="simple-arrow-right"><path d="M.556.597a.6.6 0 0 1 .847-.041l4.508 4.09L1.387 8.46a.6.6 0 1 1-.774-.918L4.09 4.613.597 1.444A.6.6 0 0 1 .556.597Z"></path></svg><svg viewBox="0 0 9 6" fill="#AB76B4" id="simple-arrow"><path d="M8.403.556a.6.6 0 0 1 .041.847l-4.09 4.508L.54 1.387A.6.6 0 0 1 1.46.613L4.387 4.09 7.556.597a.6.6 0 0 1 .847-.041Z"></path></svg><svg fill="none" id="simple-double-arrow" viewBox="0 0 9 9"><path fill-rule="evenodd" clip-rule="evenodd" d="M8.445 4.597a.6.6 0 1 1-.89.806L4.388 1.911 1.46 5.387a.6.6 0 1 1-.918-.774L4.354.09l4.09 4.508Zm0 3a.6.6 0 1 1-.89.806L4.388 4.911 1.46 8.387a.6.6 0 1 1-.918-.774L4.354 3.09l4.09 4.508Z" fill="#AB76B4"></path></svg><svg viewBox="0 0 107 41" id="slide-1"><path fill-rule="evenodd" d="M12 0C5.373 0 0 5.373 0 12v17c0 6.627 5.373 12 12 12h66.2c6.627 0 12-5.373 12-12V12c0-6.627-5.373-12-12-12H12Zm69.254 8.2H8.945v25.346h72.31V8.2ZM94.934 41c6.555-.083 11.844-5.424 11.844-11.999V12c0-6.576-5.289-11.916-11.844-11.999v8.2h2.898v25.345h-2.898v7.453ZM62.132 24.92v-9.26c0-.427-.087-.827-.26-1.2a3.04 3.04 0 0 0-1.66-1.64 2.964 2.964 0 0 0-1.18-.24h-3.08c-.427 0-.827.08-1.2.24a3.097 3.097 0 0 0-1.64 1.64c-.16.373-.24.773-.24 1.2v9.26c0 .427.08.827.24 1.2a3.097 3.097 0 0 0 1.64 1.64c.373.16.773.24 1.2.24h3.08c.413 0 .807-.08 1.18-.24a3.04 3.04 0 0 0 1.66-1.64c.173-.373.26-.773.26-1.2Zm-3.1-9.26v.9l-3.08 3.1v-4h3.08Zm-3.08 9.26v-.9l3.08-3.1v4h-3.08Zm13.904-12.34h-4.62v3.08h1.54v9.26h-1.54V28h6.16v-3.08h-1.54V12.58Z"></path></svg><svg viewBox="0 0 125 41" id="slide-2"><path fill-rule="evenodd" d="M0 12C0 5.373 5.373 0 12 0h66.2c6.627 0 12 5.373 12 12v17c0 6.627-5.373 12-12 12H12C5.373 41 0 35.627 0 29V12Zm8.945-3.8h72.31v25.346H8.944V8.2ZM106.778 29c0 6.575-5.289 11.916-11.844 11.999v-7.453h2.898V8.2h-2.898V.001c6.555.083 11.844 5.423 11.844 11.999v17Zm6.156 11.999c6.555-.083 11.844-5.424 11.844-11.999V12c0-6.576-5.289-11.916-11.844-11.999v8.2h2.899v25.345h-2.899v7.453ZM62.132 24.92v-9.26c0-.427-.087-.827-.26-1.2a3.04 3.04 0 0 0-1.66-1.64 2.964 2.964 0 0 0-1.18-.24h-3.08c-.427 0-.827.08-1.2.24a3.097 3.097 0 0 0-1.64 1.64c-.16.373-.24.773-.24 1.2v9.26c0 .427.08.827.24 1.2a3.097 3.097 0 0 0 1.64 1.64c.373.16.773.24 1.2.24h3.08c.413 0 .807-.08 1.18-.24a3.04 3.04 0 0 0 1.66-1.64c.173-.373.26-.773.26-1.2Zm-3.1-9.26v.9l-3.08 3.1v-4h3.08Zm-3.08 9.26v-.9l3.08-3.1v4h-3.08Zm12.784 0 5.4-6.74c.226-.293.34-.62.34-.98v-1.54c0-.427-.087-.827-.26-1.2a3.041 3.041 0 0 0-1.66-1.64 2.965 2.965 0 0 0-1.18-.24h-3.08c-.427 0-.827.08-1.2.24a3.096 3.096 0 0 0-1.64 1.64c-.16.373-.24.773-.24 1.2v1.54h3.08v-1.54h3.08v1l-5.82 7.3c-.227.267-.34.587-.34.96V28h9.26v-3.08h-5.74Z"></path></svg><svg viewBox="0 0 143 41" id="slide-3"><path fill-rule="evenodd" d="M0 12C0 5.373 5.373 0 12 0h66.2c6.627 0 12 5.373 12 12v17c0 6.627-5.373 12-12 12H12C5.373 41 0 35.627 0 29V12Zm8.945-3.8h72.31v25.346H8.944V8.2ZM106.778 29c0 6.575-5.289 11.916-11.844 11.999v-7.453h2.898V8.2h-2.898V.001c6.555.083 11.844 5.423 11.844 11.999v17Zm6.156 11.999c6.555-.083 11.844-5.424 11.844-11.999V12c0-6.576-5.289-11.916-11.844-11.999v8.2h2.899v25.345h-2.899v7.453ZM142.778 29c0 6.575-5.289 11.916-11.844 11.999v-7.453h2.899V8.2h-2.899V.001c6.555.083 11.844 5.423 11.844 11.999v17Zm-68.722-8.7c.133.227.233.473.3.74.08.253.12.52.12.8v3.08c0 .427-.087.827-.26 1.2a3.041 3.041 0 0 1-1.66 1.64c-.374.16-.767.24-1.18.24h-3.08c-.427 0-.827-.08-1.2-.24a3.096 3.096 0 0 1-1.64-1.64 3.014 3.014 0 0 1-.24-1.2v-1.54h3.08v1.54h3.08v-3.08h-3.08v-3.1h3.08v-3.08h-3.08v1.54h-3.08v-1.54c0-.427.08-.827.24-1.2a3.096 3.096 0 0 1 1.64-1.64c.373-.16.773-.24 1.2-.24h3.08c.413 0 .806.08 1.18.24a3.041 3.041 0 0 1 1.66 1.64c.173.373.26.773.26 1.2v3.08c0 .293-.04.573-.12.84a2.842 2.842 0 0 1-.3.72Zm-11.924 4.62v-9.26c0-.427-.087-.827-.26-1.2a3.04 3.04 0 0 0-1.66-1.64 2.964 2.964 0 0 0-1.18-.24h-3.08c-.427 0-.827.08-1.2.24a3.097 3.097 0 0 0-1.64 1.64c-.16.373-.24.773-.24 1.2v9.26c0 .427.08.827.24 1.2a3.097 3.097 0 0 0 1.64 1.64c.373.16.773.24 1.2.24h3.08c.413 0 .807-.08 1.18-.24a3.04 3.04 0 0 0 1.66-1.64c.173-.373.26-.773.26-1.2Zm-3.1-9.26v.9l-3.08 3.1v-4h3.08Zm-3.08 9.26v-.9l3.08-3.1v4h-3.08Z"></path></svg><svg viewBox="0 0 259 103" id="text-frame"><path fill-rule="evenodd" d="M26 .007c-14.36 0-26 11.64-26 26v50.557c0 14.36 11.64 26 26 26h207c14.359 0 26-11.64 26-26V26.007c0-14.36-11.641-26-26-26H26Zm210.403 20.28H22.018v61.417h214.385V20.286Z"></path></svg><svg viewBox="0 0 10 20" id="time-icon"><path fill-rule="evenodd" d="M1 .1a.9.9 0 0 1 .9.9v12.356l7.587 4.887a.9.9 0 1 1-.974 1.513L.1 14.338V1A.9.9 0 0 1 1 .1Z"></path></svg><svg viewBox="0 0 28 22" id="treadmill-icon"><path fill-rule="evenodd" d="M7.8 1a.8.8 0 1 0-1.6 0v5a.8.8 0 0 0 1.6 0V1ZM3.214 13.793A7.108 7.108 0 0 1 10 8.8a.8.8 0 0 0 0-1.6 8.708 8.708 0 0 0-8.313 6.117l-.45 1.445a.8.8 0 0 0 1.527.476l.45-1.445ZM1.8 19A1.2 1.2 0 0 1 3 17.8h6a1.2 1.2 0 0 1 0 2.4H3A1.2 1.2 0 0 1 1.8 19ZM3 16.2a2.8 2.8 0 1 0 0 5.6h6c.952 0 1.792-.474 2.298-1.2h15.22a1.082 1.082 0 0 0 .007-2.164c-2.83-.014-6.62-.03-9.748-.035a620.96 620.96 0 0 0-3.995.004c-.409.003-.76.006-1.043.01a2.801 2.801 0 0 0-2.74-2.215H3ZM23.65 21a.35.35 0 0 1 .35-.35h2a.35.35 0 1 1 0 .7h-2a.35.35 0 0 1-.35-.35ZM11.2 8a.8.8 0 0 1 .8-.8h3a.8.8 0 0 1 0 1.6h-3a.8.8 0 0 1-.8-.8Z"></path></svg><svg viewBox="0 0 22 13" id="van-icon"><path fill-rule="evenodd" d="M1.576 1a.6.6 0 0 1 .6-.6H14.53c.618 0 1.189.478 1.189 1.15v.5h2.929c1.592 0 2.953 1.217 2.953 2.8V9.8c0 .673-.57 1.15-1.188 1.15h-.072c-.28.972-1.221 1.65-2.281 1.65s-2.002-.678-2.281-1.65h-.072a1.21 1.21 0 0 1-1.022-.56c-.051.007-.103.01-.155.01H9.751c-.28.972-1.22 1.65-2.28 1.65-1.06 0-2.002-.678-2.281-1.65H3.94a.6.6 0 1 1 0-1.2h10.577V1.6H2.175a.6.6 0 0 1-.6-.6Zm4.94 9.4c.205.266.543.45.954.45.412 0 .75-.184.955-.45H6.516Zm9.202-.65H20.4v-4.9c0-.846-.746-1.6-1.753-1.6h-2.93v6.5Zm1.387 1.2c.204.266.543.45.954.45.41 0 .75-.184.954-.45h-1.909ZM.4 3.475a.6.6 0 0 1 .6-.6h5.882a.6.6 0 0 1 0 1.2H1a.6.6 0 0 1-.6-.6Zm.882 2.475a.6.6 0 0 1 .6-.6h5a.6.6 0 0 1 0 1.2h-5a.6.6 0 0 1-.6-.6Z"></path></svg><svg viewBox="0 0 30 30" id="whatsapp-icon"><path clip-rule="evenodd" d="M1.935 15C1.935 7.785 7.785 1.935 15 1.935S28.064 7.785 28.064 15 22.215 28.064 15 28.064a13 13 0 0 1-7.408-2.301l-.416-.287-2.995 1.123 1.078-2.875-.355-.432A13.007 13.007 0 0 1 1.935 15ZM15 0C6.716 0 0 6.716 0 15c0 3.411 1.14 6.559 3.059 9.079L.873 29.906 6.92 27.64A14.934 14.934 0 0 0 15 30c8.284 0 15-6.716 15-15 0-8.284-6.716-15-15-15Zm6.013 19.278.783 1.549c.514 1.017.014 2.286-1.023 2.595l-1.099.326c-2.834.843-5.84-.48-7.315-3.22l-2.486-4.617c-1.515-2.814-1.02-6.381 1.192-8.595l.855-.856c.748-.748 1.947-.559 2.464.389l.72 1.321c.777 1.424-.002 3.245-1.512 3.536-.371.071-.568.515-.385.87l3.202 6.228c.19.37.668.418.919.091 1.008-1.313 2.928-1.113 3.685.383Z"></path></svg></svg>