<svg width="26" height="20" viewBox="0 0 26 20" fill="none" xmlns="http://www.w3.org/2000/svg">
<path fill-rule="evenodd" clip-rule="evenodd" d="M21.9997 0.200195C22.4415 0.200195 22.7997 0.558368 22.7997 1.0002V6.40039H23.1997V4.0002C23.1997 3.55837 23.5579 3.2002 23.9997 3.2002C24.4415 3.2002 24.7997 3.55837 24.7997 4.0002V6.40039H24.9999C25.3313 6.40039 25.5999 6.66902 25.5999 7.00039C25.5999 7.33176 25.3313 7.60039 24.9999 7.60039H24.7997V11.0002C24.7997 11.442 24.4415 11.8002 23.9997 11.8002C23.5579 11.8002 23.1997 11.442 23.1997 11.0002V7.60039H22.7997V12.0002C22.7997 12.442 22.4415 12.8002 21.9997 12.8002C21.5579 12.8002 21.1997 12.442 21.1997 12.0002V7.60039H19.5999V19.0004C19.5999 19.3318 19.3313 19.6004 18.9999 19.6004C18.6685 19.6004 18.3999 19.3318 18.3999 19.0004V7.60039H8.5999V19.0004C8.5999 19.3318 8.33127 19.6004 7.9999 19.6004C7.66853 19.6004 7.3999 19.3318 7.3999 19.0004V7.60039H5.79971V12.0002C5.79971 12.442 5.44153 12.8002 4.99971 12.8002C4.55788 12.8002 4.19971 12.442 4.19971 12.0002V7.60039H3.79971V10.0002C3.79971 10.442 3.44153 10.8002 2.99971 10.8002C2.55788 10.8002 2.19971 10.442 2.19971 10.0002V7.60039H0.999902C0.668532 7.60039 0.399902 7.33176 0.399902 7.00039C0.399902 6.66902 0.668532 6.40039 0.999902 6.40039H2.19971V4.0002C2.19971 3.55837 2.55788 3.2002 2.99971 3.2002C3.44153 3.2002 3.79971 3.55837 3.79971 4.0002V6.40039H4.19971V1.0002C4.19971 0.558368 4.55788 0.200195 4.99971 0.200195C5.44153 0.200195 5.79971 0.558368 5.79971 1.0002V6.40039H7.3999V2.00039C7.3999 1.66902 7.66853 1.40039 7.9999 1.40039C8.33127 1.40039 8.5999 1.66902 8.5999 2.00039V6.40039H18.3999V2.00039C18.3999 1.66902 18.6685 1.40039 18.9999 1.40039C19.3313 1.40039 19.5999 1.66902 19.5999 2.00039V6.40039H21.1997V1.0002C21.1997 0.558368 21.5579 0.200195 21.9997 0.200195ZM9.99971 15.2002C9.55788 15.2002 9.19971 15.5584 9.19971 16.0002C9.19971 16.442 9.55788 16.8002 9.99971 16.8002H16.9997C17.4415 16.8002 17.7997 16.442 17.7997 16.0002C17.7997 15.5584 17.4415 15.2002 16.9997 15.2002H9.99971Z" fill="black"/>
</svg>
