<svg viewBox="0 0 32 30"  xmlns="http://www.w3.org/2000/svg">
<path fill-rule="evenodd" d="M5.01479 6.50046L15.5152 2.56279L27.0001 6.50046H5.01479ZM15.9602 0.601066C15.653 0.49573 15.3187 0.500492 15.0146 0.61453L1.21441 5.7896C-0.24497 6.33687 0.147373 8.50046 1.70599 8.50046H30.6001C32.1814 8.50046 32.55 6.28899 31.0542 5.77613L15.9602 0.601066ZM0.5 11C0.5 10.4477 0.947715 10 1.5 10H31C31.5523 10 32 10.4477 32 11C32 11.5523 31.5523 12 31 12H1.5C0.947715 12 0.5 11.5523 0.5 11ZM4.9999 13.9004C5.60742 13.9004 6.0999 14.3929 6.0999 15.0004V25.0004C6.0999 25.6079 5.60742 26.1004 4.9999 26.1004C4.39239 26.1004 3.8999 25.6079 3.8999 25.0004V15.0004C3.8999 14.3929 4.39239 13.9004 4.9999 13.9004ZM14.0999 15.0004C14.0999 14.3929 13.6074 13.9004 12.9999 13.9004C12.3924 13.9004 11.8999 14.3929 11.8999 15.0004V25.0004C11.8999 25.6079 12.3924 26.1004 12.9999 26.1004C13.6074 26.1004 14.0999 25.6079 14.0999 25.0004V15.0004ZM20.9999 13.9004C21.6074 13.9004 22.0999 14.3929 22.0999 15.0004V25.0004C22.0999 25.6079 21.6074 26.1004 20.9999 26.1004C20.3924 26.1004 19.8999 25.6079 19.8999 25.0004V15.0004C19.8999 14.3929 20.3924 13.9004 20.9999 13.9004ZM29.0999 15.0004C29.0999 14.3929 28.6074 13.9004 27.9999 13.9004C27.3924 13.9004 26.8999 14.3929 26.8999 15.0004V25.0004C26.8999 25.6079 27.3924 26.1004 27.9999 26.1004C28.6074 26.1004 29.0999 25.6079 29.0999 25.0004V15.0004ZM1 29C1 28.4477 1.44772 28 2 28H31C31.5523 28 32 28.4477 32 29C32 29.5523 31.5523 30 31 30H2C1.44772 30 1 29.5523 1 29Z"/>
</svg>
