<svg width="24" height="24" viewBox="0 0 24 24" fill="none" xmlns="http://www.w3.org/2000/svg">
<g clip-path="url(#clip0_9770_6495)">
<path d="M4.5 3V3C2.84315 3 1.5 4.34315 1.5 6V19.5C1.5 21.1569 2.84315 22.5 4.5 22.5H19.5C21.1569 22.5 22.5 21.1569 22.5 19.5V6C22.5 4.34315 21.1569 3 19.5 3V3" stroke="#2E2E2E" stroke-width="1.5" stroke-linecap="round"/>
<path d="M16.5306 9.09741C16.6097 9.09741 16.6737 9.16147 16.6737 9.24049V16.8459C16.6737 16.9288 16.6066 16.9959 16.5237 16.9959H15.2646C15.1817 16.9959 15.1146 16.9288 15.1146 16.8459V11.0998C15.1146 10.9983 15.0159 10.9261 14.9191 10.9569L13.4369 11.4281C13.3402 11.4589 13.2415 11.3867 13.2415 11.2852V10.3671C13.2415 10.3037 13.2813 10.2471 13.3411 10.2258L16.4826 9.10572C16.498 9.10022 16.5143 9.09741 16.5306 9.09741Z" fill="#2E2E2E"/>
<path d="M8.54734 12.5281C8.54734 12.4453 8.61449 12.3781 8.69734 12.3781H9.38104C9.64811 12.3781 9.86827 12.333 10.0415 12.2428C10.2147 12.1489 10.3429 12.019 10.4259 11.853C10.5125 11.6834 10.5558 11.4867 10.5558 11.2629C10.5558 11.0608 10.5161 10.8821 10.4367 10.727C10.3609 10.5682 10.2436 10.4454 10.0848 10.3588C9.92601 10.2686 9.72571 10.2235 9.4839 10.2235C9.29262 10.2235 9.11577 10.2614 8.95336 10.3372C8.79095 10.413 8.66102 10.5194 8.56358 10.6566C8.49208 10.7572 8.44681 10.8734 8.42777 11.0051C8.41592 11.0871 8.35025 11.1546 8.26741 11.1546H7.00286C6.92002 11.1546 6.85229 11.0874 6.85762 11.0047C6.88151 10.6339 6.99541 10.3068 7.19933 10.0232C7.43393 9.70197 7.74792 9.45114 8.14131 9.27068C8.5347 9.09023 8.9678 9 9.44059 9C9.97474 9 10.4421 9.08662 10.8427 9.25986C11.2433 9.42948 11.5555 9.68032 11.7793 10.0124C12.0031 10.3444 12.1149 10.7558 12.1149 11.2467C12.1149 11.4957 12.0572 11.7375 11.9417 11.9721C11.8262 12.2031 11.6602 12.4124 11.4436 12.6001C11.2307 12.7841 10.9708 12.9321 10.6641 13.044C10.3573 13.1523 10.0126 13.2064 9.63007 13.2064H8.69734C8.61449 13.2064 8.54734 13.1393 8.54734 13.0564V12.5281ZM8.69733 13.5637C8.61449 13.5637 8.54734 13.4966 8.54734 13.4137V12.9071C8.54734 12.8242 8.61449 12.7571 8.69734 12.7571H9.63007C10.0596 12.7571 10.4367 12.8058 10.7615 12.9032C11.0863 13.0007 11.3588 13.1414 11.579 13.3255C11.7991 13.506 11.9652 13.7207 12.077 13.9697C12.1889 14.2152 12.2449 14.4876 12.2449 14.7872C12.2449 15.1553 12.1745 15.4838 12.0337 15.7725C11.893 16.0576 11.6945 16.2994 11.4382 16.4979C11.1856 16.6964 10.8896 16.848 10.5504 16.9527C10.2111 17.0537 9.8412 17.1042 9.44059 17.1042C9.10855 17.1042 8.78193 17.0591 8.46072 16.9689C8.14312 16.8751 7.85439 16.7361 7.59453 16.5521C7.33828 16.3644 7.13257 16.1298 6.97737 15.8483C6.84558 15.6004 6.77108 15.3129 6.75387 14.9859C6.74952 14.9032 6.81716 14.8359 6.9 14.8359H8.16455C8.24739 14.8359 8.31329 14.9034 8.3243 14.9855C8.34342 15.1282 8.3907 15.2588 8.46613 15.3773C8.56719 15.5361 8.70614 15.6606 8.88298 15.7508C9.06344 15.8411 9.26374 15.8862 9.4839 15.8862C9.73293 15.8862 9.94586 15.8411 10.1227 15.7508C10.3032 15.657 10.4403 15.5271 10.5341 15.361C10.6316 15.1914 10.6803 14.9947 10.6803 14.771C10.6803 14.4822 10.628 14.2512 10.5233 14.078C10.4187 13.9012 10.2689 13.7712 10.074 13.6882C9.8791 13.6052 9.64811 13.5637 9.38104 13.5637H8.69733Z" fill="#2E2E2E"/>
<path d="M8.25 1.5L8.25 4.5" stroke="#2E2E2E" stroke-width="1.5" stroke-linecap="round"/>
<path d="M15.75 1.5L15.75 4.5" stroke="#2E2E2E" stroke-width="1.5" stroke-linecap="round"/>
</g>
<defs>
<clipPath id="clip0_9770_6495">
<rect width="24" height="24" fill="white"/>
</clipPath>
</defs>
</svg>
