<svg viewBox="0 0 17 14" xmlns="http://www.w3.org/2000/svg">
<path fill-rule="evenodd"  d="M2 0H14.6535C15.7581 0 16.6535 0.895431 16.6535 2V13.0776L14.85 10.9053C14.0901 9.98992 12.9621 9.46036 11.7725 9.46036H2C0.895429 9.46036 0 8.56493 0 7.46036V2C0 0.895431 0.89543 0 2 0ZM4.30233 6.10257C4.93664 6.10257 5.45085 5.58213 5.45085 4.94012C5.45085 4.29812 4.93664 3.77767 4.30233 3.77767C3.66802 3.77767 3.15381 4.29812 3.15381 4.94012C3.15381 5.58213 3.66802 6.10257 4.30233 6.10257ZM8.89567 4.94012C8.89567 5.58213 8.38146 6.10257 7.74715 6.10257C7.11284 6.10257 6.59863 5.58213 6.59863 4.94012C6.59863 4.29812 7.11284 3.77767 7.74715 3.77767C8.38146 3.77767 8.89567 4.29812 8.89567 4.94012ZM11.1954 6.10257C11.8297 6.10257 12.3439 5.58213 12.3439 4.94012C12.3439 4.29812 11.8297 3.77767 11.1954 3.77767C10.5611 3.77767 10.0469 4.29812 10.0469 4.94012C10.0469 5.58213 10.5611 6.10257 11.1954 6.10257Z"/>
</svg>
