<svg viewBox="0 0 17 16" xmlns="http://www.w3.org/2000/svg">
<path fill-rule="evenodd"  d="M9.41901 11.6842L9.0589 11.2444H8.49048C6.37402 11.2444 4.5061 10.6141 3.19611 9.65405C1.88538 8.69348 1.20001 7.46594 1.20001 6.22217C1.20001 4.97852 1.88538 3.75098 3.19611 2.79041C4.5061 1.83032 6.37402 1.19995 8.49048 1.19995C10.6069 1.19995 12.4749 1.83032 13.7849 2.79041C15.0956 3.75098 15.7809 4.97852 15.7809 6.22217V6.28552L15.7876 6.34851C15.8923 7.33789 15.3389 9.10229 13.9202 10.8815C12.9705 12.0723 11.6979 13.1826 10.1519 13.9763C10.184 13.2417 10.0183 12.4163 9.41901 11.6842ZM8.18726 16C8.76025 15.8527 9.3092 15.6663 9.83301 15.4471C14.5761 13.4635 17.254 8.80151 16.981 6.22217C16.981 2.78577 13.1796 0 8.49048 0C3.80133 0 0 2.78577 0 6.22217C0 9.65869 3.80133 12.4445 8.49048 12.4445C9.008 13.0765 9.03101 13.8491 8.8631 14.5374C8.71619 15.1396 8.4231 15.6774 8.18726 16ZM5 8C5.55231 8 6 7.55225 6 7C6 6.44775 5.55231 6 5 6C4.44769 6 4 6.44775 4 7C4 7.55225 4.44769 8 5 8ZM14 7C14 7.55225 13.5523 8 13 8C12.4477 8 12 7.55225 12 7C12 6.44775 12.4477 6 13 6C13.5523 6 14 6.44775 14 7ZM9 8C9.55231 8 10 7.55225 10 7C10 6.44775 9.55231 6 9 6C8.44769 6 8 6.44775 8 7C8 7.55225 8.44769 8 9 8Z"/>
</svg>
