<svg viewBox="0 0 41 13" xmlns="http://www.w3.org/2000/svg">
<path d="M5.03201 0.654053H4.24801L0.958008 12.2601H1.74201L5.03201 0.654053ZM8.14449 0.654053H8.92849L5.63849 12.2601H4.85449L8.14449 0.654053ZM12.825 0.654053H12.041L8.75098 12.2601H9.53498L12.825 0.654053ZM15.9375 0.654053H16.7215L13.4315 12.2601H12.6475L15.9375 0.654053ZM20.6179 0.654053H19.8339L16.5439 12.2601H17.3279L20.6179 0.654053ZM23.7304 0.654053H24.5144L21.2244 12.2601H20.4404L23.7304 0.654053ZM28.4109 0.654053H27.6269L24.3369 12.2601H25.1209L28.4109 0.654053ZM31.5234 0.654053H32.3074L29.0174 12.2601H28.2334L31.5234 0.654053ZM36.2039 0.654053H35.4199L32.1299 12.2601H32.9139L36.2039 0.654053ZM40.1004 0.654053H39.3164L36.0264 12.2601H36.8104L40.1004 0.654053Z"/>
</svg>
