<svg viewBox="0 0 82 11" xmlns="http://www.w3.org/2000/svg">
<path fill-rule="evenodd" clip-rule="evenodd" d="M4.45611 0.132019H3.78411L0.964111 10.08H1.63611L4.45611 0.132019ZM7.12395 0.132019H7.79596L4.97596 10.08H4.30396L7.12395 0.132019ZM11.1358 0.132019H10.4638L7.6438 10.08H8.3158L11.1358 0.132019ZM13.8036 0.132019H14.4756L11.6556 10.08H10.9836L13.8036 0.132019ZM17.8155 0.132019H17.1435L14.3235 10.08H14.9955L17.8155 0.132019ZM20.4833 0.132019H21.1553L18.3353 10.08H17.6633L20.4833 0.132019ZM24.4952 0.132019H23.8232L21.0032 10.08H21.6752L24.4952 0.132019ZM27.163 0.132019H27.835L25.015 10.08H24.343L27.163 0.132019ZM31.1749 0.132019H30.5029L27.6829 10.08H28.3549L31.1749 0.132019ZM33.8427 0.132019H34.5147L31.6947 10.08H31.0227L33.8427 0.132019ZM37.8545 0.132019H37.1825L34.3625 10.08H35.0345L37.8545 0.132019ZM40.5224 0.132019H41.1944L38.3744 10.08H37.7024L40.5224 0.132019ZM44.5342 0.132019H43.8622L41.0422 10.08H41.7142L44.5342 0.132019ZM47.2021 0.132019H47.8741L45.0541 10.08H44.3821L47.2021 0.132019ZM51.2139 0.132019H50.5419L47.7219 10.08H48.3939L51.2139 0.132019ZM53.8818 0.132019H54.5538L51.7338 10.08H51.0618L53.8818 0.132019ZM57.8936 0.132019H57.2216L54.4016 10.08H55.0736L57.8936 0.132019ZM60.5615 0.132019H61.2335L58.4135 10.08H57.7415L60.5615 0.132019ZM64.5733 0.132019H63.9013L61.0813 10.08H61.7533L64.5733 0.132019ZM67.2411 0.132019H67.9131L65.0931 10.08H64.4211L67.2411 0.132019ZM71.253 0.132019H70.581L67.761 10.08H68.433L71.253 0.132019ZM73.9208 0.132019H74.5928L71.7728 10.08H71.1008L73.9208 0.132019ZM77.9327 0.132019H77.2607L74.4407 10.08H75.1127L77.9327 0.132019ZM81.2725 0.132019H80.6005L77.7805 10.08H78.4525L81.2725 0.132019Z"/>
</svg>
