<svg width="111" height="13" viewBox="0 0 111 13" fill="none" xmlns="http://www.w3.org/2000/svg">
<path d="M109.453 0.654053H110.237L106.947 12.2601H106.163L109.453 0.654053Z" fill="white"/>
<path d="M105.557 0.654053H106.341L103.051 12.2601H102.267L105.557 0.654053Z" fill="white"/>
<path d="M101.66 0.654053H102.444L99.1541 12.2601H98.3701L101.66 0.654053Z" fill="white"/>
<path d="M97.7636 0.654053H98.5476L95.2576 12.2601H94.4736L97.7636 0.654053Z" fill="white"/>
<path d="M93.8671 0.654053H94.6511L91.3611 12.2601H90.5771L93.8671 0.654053Z" fill="white"/>
<path d="M89.9707 0.654053H90.7547L87.4647 12.2601H86.6807L89.9707 0.654053Z" fill="white"/>
<path d="M86.0742 0.654053H86.8582L83.5682 12.2601H82.7842L86.0742 0.654053Z" fill="white"/>
<path d="M82.1777 0.654053H82.9617L79.6717 12.2601H78.8877L82.1777 0.654053Z" fill="white"/>
<path d="M78.2812 0.654053H79.0652L75.7752 12.2601H74.9912L78.2812 0.654053Z" fill="white"/>
<path d="M74.3847 0.654053H75.1687L71.8787 12.2601H71.0947L74.3847 0.654053Z" fill="white"/>
<path d="M39.3164 0.654053H40.1004L36.8104 12.2601H36.0264L39.3164 0.654053Z" fill="#656273"/>
<path d="M35.4199 0.654053H36.2039L32.9139 12.2601H32.1299L35.4199 0.654053Z" fill="#656273"/>
<path d="M31.5234 0.654053H32.3074L29.0174 12.2601H28.2334L31.5234 0.654053Z" fill="#656273"/>
<path d="M27.6269 0.654053H28.4109L25.1209 12.2601H24.3369L27.6269 0.654053Z" fill="#656273"/>
<path d="M23.7304 0.654053H24.5144L21.2244 12.2601H20.4404L23.7304 0.654053Z" fill="#656273"/>
<path d="M19.8339 0.654053H20.6179L17.3279 12.2601H16.5439L19.8339 0.654053Z" fill="#656273"/>
<path d="M15.9375 0.654053H16.7215L13.4315 12.2601H12.6475L15.9375 0.654053Z" fill="#656273"/>
<path d="M12.041 0.654053H12.825L9.53498 12.2601H8.75098L12.041 0.654053Z" fill="#656273"/>
<path d="M8.14449 0.654053H8.92849L5.63849 12.2601H4.85449L8.14449 0.654053Z" fill="#656273"/>
<path d="M4.24801 0.654053H5.03201L1.74201 12.2601H0.958008L4.24801 0.654053Z" fill="#656273"/>
</svg>
