<svg viewBox="0 0 7 7" fill="none" xmlns="http://www.w3.org/2000/svg">
<path d="M1.35355 6.35355C1.15829 6.54882 0.841709 6.54882 0.646447 6.35355C0.451184 6.15829 0.451184 5.84171 0.646447 5.64645L2.79289 3.5L0.646447 1.35355C0.451184 1.15829 0.451184 0.841709 0.646447 0.646447C0.841709 0.451185 1.15829 0.451185 1.35355 0.646447L3.5 2.79289L5.64645 0.646446C5.84171 0.451184 6.15829 0.451184 6.35355 0.646446C6.54882 0.841709 6.54882 1.15829 6.35355 1.35355L4.20711 3.5L6.35355 5.64645C6.54882 5.84171 6.54882 6.15829 6.35355 6.35355C6.15829 6.54882 5.84171 6.54882 5.64645 6.35355L3.5 4.20711L1.35355 6.35355Z" fill="#AEAEAE"/>
</svg>
