<svg width="12" height="13" viewBox="0 0 12 13" fill="none" xmlns="http://www.w3.org/2000/svg">
<path d="M0.39467 6.07329C0.105774 5.739 0.142577 5.23381 0.476869 4.94491C0.811162 4.65602 1.31636 4.69282 1.60525 5.02711L6.16237 10.3004L10.376 5.04951C10.6525 4.70491 11.1561 4.64973 11.5007 4.92626C11.8452 5.20278 11.9004 5.7063 11.6239 6.0509L6.20792 12.8L0.39467 6.07329ZM0.39467 2.07329C0.105774 1.739 0.142577 1.23381 0.476869 0.944911C0.811162 0.656017 1.31636 0.692819 1.60525 1.02711L6.16237 6.30035L10.376 1.04951C10.6525 0.704912 11.1561 0.649732 11.5007 0.926258C11.8452 1.20278 11.9004 1.7063 11.6239 2.0509L6.20792 8.80005L0.39467 2.07329Z" fill="#AB76B4"/>
</svg>
