<svg viewBox="0 0 81 16" xmlns="http://www.w3.org/2000/svg">
<path d="M2.69698 7.56154C1.27487 9.39719 0.856745 9.38498 0.157023 11.9356C0.137846 12.2493 -0.14274 15.0236 0.0952722 15.0236H3.9286C3.9286 14.6579 3.84685 12.5527 3.97962 12.1847C4.47243 10.8187 5.53248 9.37159 7.34674 9.33131C8.86345 9.29754 11 10.7794 11.0047 12.3658C11.007 13.0991 11.0254 14.2985 10.9877 15.0236H14.9599C14.9266 13.4275 14.9437 12.5361 14.5902 11.0333C14.1435 9.68933 13.3615 8.43184 12.2439 7.55319C13.484 6.70143 14.8824 5.45843 14.9627 1.64886C14.9796 0.84234 15.1615 0.278414 14.8957 0.216755H11.1563C11.1535 1.10806 11.2288 2.53907 10.826 3.41625C10.2555 4.65879 9.05944 5.77709 7.61714 5.67846C5.97859 5.56642 4.98204 5.02251 4.32957 3.7595C3.67591 2.49429 3.93154 1.59601 3.93154 0.216755H0.173906C-0.167146 0.220609 0.082243 2.98481 0.177851 3.30522C0.768202 5.28309 1.30414 6.10218 2.69698 7.56154ZM76.4712 5.4743C77.231 6.33019 77.3699 7.91205 76.8766 8.94979C76.3254 10.1096 75.2287 11.0203 73.9187 11.0979C72.1891 11.2004 70.2208 10.0149 70.1223 8.32732C70.0546 7.1658 69.9919 7.39923 70.2939 6.09604C70.7081 4.96874 72.3854 3.88484 73.7084 3.91493C74.8213 3.94007 75.7699 4.68457 76.4712 5.4743ZM54.8905 8.87382H59.6321C60.252 8.87382 60.8422 9.38324 60.7891 10.0581C60.751 10.5438 60.6392 11.2072 59.8359 11.1751L54.8905 11.2044V8.87382ZM33.6822 15.0236H37.5664C37.5664 12.424 37.6203 7.36454 39.4747 5.18574C40.4822 4.00192 41.1145 3.5102 42.1986 4.633C44.4983 7.0145 44.5711 11.9213 44.6359 15.0236H48.5978C48.5978 12.2966 48.2882 10.1462 47.8108 7.33325C47.2842 4.23121 44.6684 0.0902283 41.1435 0.0960089C37.7155 0.101606 34.8506 4.10376 34.3925 7.17287C33.963 10.0462 33.735 11.9353 33.6822 15.0236ZM24.7211 4.0099C25.2201 4.17359 25.48 4.39316 25.9036 4.61401C27.3757 5.38154 28.4269 8.56378 25.8864 10.4751C24.6519 11.404 23.355 11.2062 22.0222 10.593C20.6707 9.94946 20.0699 8.04756 20.3604 6.65812C20.7088 4.99231 22.741 3.35936 24.7211 4.0099ZM28.8686 13.1465C28.7854 14.1026 27.5458 14.0993 27.545 15.0236H31.3516C31.3516 12.6924 31.3001 9.90881 31.3547 7.47539C31.4175 4.66696 29.4907 1.83045 26.9629 0.680394C24.8225 -0.293307 23.0935 -0.138427 20.9241 0.61855C20.4115 0.797288 19.0641 1.69942 18.6786 2.10195C17.6651 3.16025 17.1083 4.22827 16.6242 5.56331C16.1524 6.86439 16.4895 9.05109 16.9403 10.3146C17.851 12.8669 20.6599 14.9255 23.3563 15.083C24.1117 15.1271 25.1648 14.9996 25.8794 14.8184C27.0777 14.5143 27.8744 13.6425 28.8686 13.1465ZM54.8905 3.97962H59.0106C59.7305 3.97962 59.8951 4.61282 59.9321 5.18711C59.9675 5.73397 59.3497 6.31019 58.7776 6.31019L54.8905 6.31303V3.97962ZM51.0659 0.164825L51.0215 15.0236H60.5609C62.9815 15.1596 64.6491 13.2367 64.7045 10.8318C64.7566 8.56589 63.1391 7.12809 63.1321 7.07258C63.107 6.87595 64.1221 5.39466 63.7145 3.7038C63.2058 1.59253 61.3569 0.169869 59.0874 0.173906L51.0659 0.164825ZM78.6651 13.1465C78.6319 13.4334 78.7631 13.1842 78.3489 13.6072C77.6255 14.3461 77.1855 14.3808 77.1861 15.0236H80.9927C80.9927 12.6757 81.0078 9.93478 80.9945 7.47658C80.9845 5.64488 80.6669 4.74201 79.7097 3.24576C78.4151 1.2222 76.0486 0.0941723 73.6159 0.0968332C70.5403 0.100228 68.1375 1.60923 66.777 4.36591C65.5299 6.89311 66.0721 10.8135 68.1382 12.7197C70.6303 15.0187 73.159 15.6895 76.3295 14.54C77.8108 14.0028 77.9983 13.2272 78.6651 13.1465Z"/>
</svg>
