<svg viewBox="0 0 15 19" xmlns="http://www.w3.org/2000/svg">
<path  d="M13.427 6.36509L7.52823 2.2401L1.60976 6.79276C1.17201 7.1295 0.54416 7.0476 0.207427 6.60985C-0.129307 6.17209 -0.0474143 5.54425 0.39034 5.20751L6.59957 0.431181C7.11874 0.0318249 7.83699 0.0155044 8.37376 0.390866L14.5731 4.72609C15.0257 5.04259 15.1361 5.66607 14.8196 6.11867C14.503 6.57127 13.8796 6.6816 13.427 6.36509ZM1.5 19H13.5C13.7761 19 14 18.7761 14 18.5V10.0791C14 9.92085 13.9251 9.77198 13.7981 9.67765L7.79812 5.22142C7.62111 5.08995 7.37889 5.08995 7.20188 5.22142L1.20188 9.67765C1.07487 9.77198 1 9.92085 1 10.0791V18.5C1 18.7761 1.22386 19 1.5 19Z"/>
</svg>
