<svg viewBox="0 0 18 17"  xmlns="http://www.w3.org/2000/svg">
<path fill-rule="evenodd" d="M8.26408 1.2C6.66246 1.2 5.36408 2.49837 5.36408 4.1C5.36408 5.70163 6.66246 7 8.26408 7C9.86571 7 11.1641 5.70163 11.1641 4.1C11.1641 2.49837 9.86571 1.2 8.26408 1.2ZM4.16408 4.1C4.16408 1.83563 5.99972 0 8.26408 0C10.5285 0 12.3641 1.83563 12.3641 4.1C12.3641 5.3742 11.7828 6.51264 10.871 7.26463C12.9136 7.74544 14.6836 8.81251 16.0116 9.88787C17.7066 11.2605 17.4272 13.656 15.9834 15.0341C15.7437 15.2629 15.3639 15.254 15.1352 15.0143C14.9064 14.7746 14.9152 14.3948 15.1549 14.166C16.2138 13.1553 16.25 11.6251 15.2564 10.8204C13.4704 9.3742 10.946 8.04349 8.14241 8.21503C5.25635 8.39161 3.06843 9.86873 1.68435 11.3019C0.955807 12.0563 1.06312 13.2993 1.94344 14.1745C2.17843 14.4082 2.17953 14.7881 1.94589 15.0231C1.71225 15.2581 1.33236 15.2592 1.09737 15.0255C-0.105564 13.8295 -0.491017 11.827 0.821163 10.4683C1.975 9.27353 3.6612 8.02435 5.83217 7.40121C4.82036 6.65459 4.16408 5.45394 4.16408 4.1ZM6.17881 13.4008C5.64865 14.0978 5.41187 14.9774 5.36247 15.6443C5.33799 15.9748 5.05025 16.2228 4.71979 16.1984C4.38932 16.1739 4.14127 15.8861 4.16575 15.5557C4.22746 14.7226 4.51797 13.6022 5.22367 12.6743C5.94838 11.7214 7.09317 11.0001 8.76409 11C10.4427 10.9999 11.5344 11.7284 12.2291 12.6849C12.8978 13.6055 13.1816 14.7129 13.3498 15.4698C13.4217 15.7933 13.2177 16.1138 12.8943 16.1857C12.5708 16.2576 12.2503 16.0536 12.1784 15.7302C12.0133 14.9871 11.7698 14.0945 11.2582 13.3901C10.7726 12.7215 10.031 12.2 8.76413 12.2C7.48962 12.2 6.68997 12.7287 6.17881 13.4008Z"/>
</svg>
