<svg viewBox="0 0 18 22" xmlns="http://www.w3.org/2000/svg">
<path fill-rule="evenodd" d="M8.49992 1.60039C6.8983 1.60039 5.59992 2.89876 5.59992 4.50039C5.59992 6.10202 6.8983 7.40039 8.49992 7.40039C10.1016 7.40039 11.3999 6.10202 11.3999 4.50039C11.3999 2.89876 10.1016 1.60039 8.49992 1.60039ZM4.39992 4.50039C4.39992 2.23602 6.23556 0.400391 8.49992 0.400391C10.7643 0.400391 12.5999 2.23602 12.5999 4.50039C12.5999 5.77459 12.0187 6.91303 11.1069 7.66502C13.1494 8.14583 14.9194 9.2129 16.2474 10.2883C17.9425 11.6609 17.6631 14.0564 16.2193 15.4345C15.9796 15.6632 15.5998 15.6544 15.371 15.4147C15.1422 15.175 15.151 14.7952 15.3908 14.5664C16.4497 13.5557 16.4858 12.0254 15.4922 11.2208C13.7062 9.77459 11.1819 8.44388 8.37825 8.61542C5.49219 8.792 3.30427 10.2691 1.92019 11.7023C1.19165 12.4567 1.29896 13.6997 2.17928 14.5749C2.41427 14.8086 2.41537 15.1885 2.18173 15.4235C1.94809 15.6585 1.5682 15.6596 1.33321 15.4259C0.130276 14.2299 -0.255177 12.2274 1.057 10.8687C2.21084 9.67392 3.89704 8.42474 6.06801 7.8016C5.0562 7.05498 4.39992 5.85433 4.39992 4.50039ZM5.00002 15H13V21H5.00002V15ZM4.00002 15C4.00002 14.4477 4.44774 14 5.00002 14H13C13.5523 14 14 14.4477 14 15V21C14 21.5523 13.5523 22 13 22H5.00002C4.44774 22 4.00002 21.5523 4.00002 21V15ZM6.00002 17.5C5.72388 17.5 5.50002 17.7239 5.50002 18C5.50002 18.2761 5.72388 18.5 6.00002 18.5H12C12.2762 18.5 12.5 18.2761 12.5 18C12.5 17.7239 12.2762 17.5 12 17.5H6.00002Z" />
</svg>
