<svg width="42" height="23" viewBox="0 0 42 23" fill="none" xmlns="http://www.w3.org/2000/svg">
<path fill-rule="evenodd" clip-rule="evenodd" d="M11.0918 0C14.4043 0 17.3779 1.45215 19.4102 3.75488C17.9658 5.83789 17.1191 8.36621 17.1191 11.0928C17.1191 13.8184 17.9648 16.3467 19.4092 18.4287C17.377 20.7314 14.4033 22.1826 11.0918 22.1826C4.96582 22.1826 0 17.2168 0 11.0918C0 4.96582 4.96582 0 11.0918 0ZM30.9092 22.1826C37.0342 22.1826 42 17.2168 42 11.0918C42 4.96582 37.0342 0 30.9092 0C24.7832 0 19.8174 4.96582 19.8174 11.0918C19.8174 17.2168 24.7832 22.1826 30.9092 22.1826Z" fill="#F3F3F3" style="mix-blend-mode:multiply"/>
</svg>
