<svg viewBox="0 0 20 21" xmlns="http://www.w3.org/2000/svg">
<path fill-rule="evenodd" clip-rule="evenodd" d="M2.06291 3.28443C1.81529 1.46378 3.51029 -0.0647587 5.27999 0.526686L5.87417 0.725267C6.54675 0.950047 7.1475 1.35353 7.61672 1.89259L9.66951 4.2509L11.5512 1.89268C11.9748 1.36172 12.5326 0.957824 13.166 0.726909L13.4861 0.610196C15.2351 -0.0274597 16.9567 1.46796 16.7301 3.28507C16.6332 4.06248 16.3036 4.76156 15.8163 5.30836H19.5999V9.71093H18.3585V20.5996H1.64128V9.71093H0.399902V5.30836H2.99771C2.50531 4.76214 2.16885 4.06336 2.06291 3.28443ZM5.67209 5.30836H8.99905L6.71159 2.68045C6.38075 2.30037 5.96024 2.01927 5.4938 1.86339L4.89962 1.66481C4.0367 1.37641 3.11497 2.11546 3.25197 3.12271C3.42442 4.39066 4.46861 5.30836 5.67209 5.30836ZM10.3609 5.30836H13.1629C14.3528 5.30836 15.3827 4.39331 15.5394 3.13661C15.6635 2.14133 14.7391 1.43066 13.8972 1.7376L13.577 1.85432C13.1542 2.00849 12.7776 2.27967 12.4892 2.64111L10.3609 5.30836ZM1.5999 6.50836V8.51093H7.84818V6.50836H1.5999ZM9.04818 6.50836V19.3996H10.9516V6.50836H9.04818ZM12.1516 6.50836V19.3996H17.1585V9.71093H12.1999V8.51093H18.3999V6.50836H12.1516ZM7.84818 19.3996V9.71093H2.84128V19.3996H7.84818Z"/>
</svg>
