<svg viewBox="0 0 42 42"  xmlns="http://www.w3.org/2000/svg">
<path fill-rule="evenodd" clip-rule="evenodd" d="M1.95986 31.3601V39.6803H10.2801V31.3601H1.95986ZM26.6001 1.92018V0.320312H28.2V1.92018H26.6001ZM23.4 1.92018V0.320312H24.9999V3.52006L19.8801 3.52044L19.8797 6.72018H18.2799V11.8403H16.68V6.72018H18.2799V5.12031H16.68V6.72018H13.4799V4.80019H15.0801V0.320312H16.68V3.52044H18.2799V1.92018H23.4ZM13.4799 3.52006V1.92018H15.0797V3.52006H13.4799ZM13.4799 11.8403V8.64018H15.0797V11.8403H13.4799ZM5.15999 16.6403V15.0401H6.75986V16.6403H5.15999ZM0.359985 15.0401V16.6403H5.15999V18.2402C4.0934 18.2402 3.02644 18.2402 1.95986 18.2402V21.4403H0.359985V28.1603H1.95986V23.3603H3.56012V26.5601H5.47407V24.9602H6.79275V28.1603H8.67986V26.5601H9.95999V28.1603H13.4799V31.3601H15.0801V28.1603H18.6V26.5601H15.0801V28.1599H13.4799V26.5601H15.0797V24.9602H18.2799V21.7601H19.8801V23.0402H21.7997V21.4403H19.8801V18.2402H21.8001V16.6403H18.2799V18.2402H16.68V15.0401H18.2799V13.4402H10.2801V15.0401H15.0801V18.2402H11.88V16.6403H9.95999V18.2402H8.36012V19.8401H9.95999V21.7601H6.79275V23.3603H5.47407V21.4403H3.55974V20.1602H5.15999V18.2402H8.35974V13.4402C5.69328 13.4402 3.02644 13.4402 0.359985 13.4402V15.0401ZM9.98683 26.5601H13.4799V24.9602H9.98683V26.5601ZM9.98683 23.3603V21.7601H11.88V19.8401H13.4799V23.3603H9.98683ZM18.2799 21.7601H16.68V19.8401H18.2799V21.7601ZM16.6532 21.7601V23.3603H15.0797L15.0801 21.7601H16.6532ZM21.48 6.72018V5.12031H23.0799V6.72018H21.48V10.2401H19.8801V15.0401H23.4V13.4402H21.48V10.2401H23.0799V11.8403H24.9999V10.2401H26.5997V8.64018H28.2V5.12031H24.9999V8.32006C23.2934 8.32006 21.5866 8.32006 19.8801 8.32006V6.72018H21.48ZM28.2 13.4402V10.2401H26.6001V13.4402H29.7999V16.6403H31.3997V18.2402H29.7999V19.8401H26.6001V18.2402H28.2V16.6403H26.6001V15.0404H28.2V13.4402ZM33 24.9602V23.3603H31.3997V24.9602H29.7999V26.5601H36.5199V28.1603H34.92V31.3601H36.5199V29.7602H39.3999V26.5601H38.1201V24.9602H36.5199V23.0402L41.3199 23.0398V31.3601H36.5199V34.5602H34.92V38.0804H36.5199V39.6803H38.1201V38.0804H39.72V39.6803H41.3199V41.2802H36.5199V39.6803H26.6001V38.0804H33V34.5602H31.3997V36.1601H29.7999V34.5602H28.2V36.1601H24.9999V37.7603H23.4V39.6803H21.8001V41.2802H19.8801V34.5602H16.68V38.0801H18.6V41.2802H16.68V39.6803H15.0801V41.2802H13.4799V32.9603H16.68V31.3601H18.6V29.7602H21.8001V31.3601H19.8801V32.9603H24.9999V26.5601H19.8801V24.9602H21.8001V23.0402H23.4V21.4403H21.8001V19.8404H23.4V21.4403H24.9999V19.8404H26.5997V21.4403H24.9999V26.5601H28.2V23.3603H26.6001V21.7601H29.7999V19.8404H36.5199V21.7601H34.92V24.9602H33ZM23.4 31.3604V28.1603H26.6001V34.5602H23.4V37.7603H21.8001V31.3604H23.4ZM19.8801 28.1603V26.5604H21.7997V28.1603H19.8801ZM23.4 19.8401V16.6403H24.9999V13.4402H26.5997V18.2402H24.9999V19.8401H23.4ZM33 15.0404V13.4402H31.4001V16.6403H33V18.2402H34.5999V15.0404H33ZM34.5999 15.0401V13.4402H36.1997V15.0401H34.5999ZM36.5199 18.2402V16.6403H38.1197V18.2402H36.5199ZM38.1201 15.0401V13.4402H39.72V15.0401H38.1201ZM39.72 16.6403V15.0404H41.3199V16.6403H39.72ZM38.1201 21.7601V19.5203H41.3199V21.7601H38.1201ZM38.1201 36.4802V34.5602H41.3199V38.0801H39.72V36.4802H38.1201ZM36.5199 38.0801V36.4802H38.1197V38.0801H36.5199ZM24.9999 41.2802V39.6803H26.5997V41.2802H24.9999ZM29.7999 31.3601V29.7602H31.3997V31.3601H29.7999ZM28.2 32.9444H33V28.1603H28.2V32.9444ZM31.3997 1.92018V10.2404H39.72V1.92018H31.3997ZM33 8.64018V3.52044H38.1197V8.64018H33ZM31.3997 11.8403H29.7999V0.320312H41.3199V11.8403H31.3997ZM1.95986 1.92018V10.2404H10.2801V1.92018H1.95986ZM3.56012 8.64018V3.52044H8.67986V8.64018H3.56012ZM1.95986 11.8403H0.359985V0.320312H11.88V11.8403C8.57328 11.8403 5.26657 11.8403 1.95986 11.8403ZM3.56012 38.0801V32.9603H8.67986V38.0801H3.56012ZM1.95986 41.2802H0.359985V29.7602H11.88V41.2802C8.57328 41.2802 5.26657 41.2802 1.95986 41.2802Z"/>
</svg>
