<svg viewBox="0 0 13 13" xmlns="http://www.w3.org/2000/svg">
<path fill-rule="evenodd"  d="M6.23649 1.5C6.15621 1.5 6.08709 1.55666 6.07135 1.63538C5.99215 2.03141 5.71404 2.35845 5.33588 2.50026L4.56794 2.78824C4.20458 2.9245 3.79681 2.86605 3.48635 2.63321C3.43174 2.59225 3.35533 2.59768 3.30706 2.64595L2.88481 3.0682C2.78299 3.17002 2.76354 3.32806 2.83762 3.45152C3.05466 3.81327 3.08479 4.25724 2.91861 4.64499L2.7109 5.12965C2.52937 5.55323 2.11287 5.82787 1.65202 5.82787C1.56806 5.82787 1.5 5.89593 1.5 5.97989V6.77226C1.5 6.89351 1.59829 6.9918 1.71954 6.9918C2.26404 6.9918 2.74258 7.35276 2.89216 7.87631L2.99255 8.22768C3.10677 8.62744 3.02034 9.05776 2.76062 9.3824C2.66572 9.50102 2.68103 9.67332 2.79535 9.77335L3.20853 10.1349C3.32227 10.2344 3.48723 10.2492 3.61682 10.1714C3.988 9.94869 4.44356 9.91777 4.84143 10.0883L5.30967 10.289C5.7127 10.4617 6.00005 10.8277 6.07213 11.2603C6.09519 11.3986 6.21488 11.5 6.35514 11.5H6.76221C6.93202 11.5 7.07599 11.3751 7.10001 11.207C7.17483 10.6833 7.55057 10.2524 8.0593 10.1071L8.43593 9.99947C8.79938 9.89563 9.18961 9.94707 9.51374 10.1415C9.65762 10.2279 9.84179 10.2052 9.96044 10.0866L10.2557 9.79125C10.354 9.69298 10.3627 9.53653 10.2759 9.428C9.98257 9.06139 9.91493 8.56309 10.0999 8.13156L10.5594 8.32852L10.0999 8.13156L10.289 7.69033C10.4617 7.2873 10.8277 6.99996 11.2603 6.92787C11.3986 6.90481 11.5 6.78511 11.5 6.64486V6.05616C11.5 5.97588 11.4433 5.90677 11.3646 5.89102C10.9686 5.81182 10.6416 5.53371 10.4997 5.15556L10.2118 4.38761L10.6799 4.21205L10.2118 4.38761C10.0755 4.02425 10.1339 3.61648 10.3668 3.30603L10.7668 3.60602L10.3668 3.30602C10.4078 3.25141 10.4023 3.175 10.3541 3.12673L10.7076 2.77318L10.3541 3.12673L9.9318 2.70448C9.82998 2.60266 9.67194 2.58321 9.54848 2.65729C9.18673 2.87433 8.74276 2.90447 8.35501 2.73829L7.8055 2.50278C7.44738 2.3493 7.18777 2.02935 7.11136 1.64728C7.09423 1.56164 7.01904 1.5 6.9317 1.5H6.23649ZM5.09077 1.43927C5.2 0.893123 5.67953 0.5 6.23649 0.5H6.9317C7.49572 0.5 7.98133 0.898105 8.09194 1.45117C8.10377 1.51033 8.14397 1.55987 8.19942 1.58364L8.74893 1.81914C8.84154 1.85883 8.94758 1.85164 9.03398 1.7998C9.55092 1.48963 10.2126 1.57109 10.6389 1.99737L10.2854 2.35092L10.6389 1.99737L11.0612 2.41963C11.4613 2.81979 11.5063 3.4533 11.1668 3.90602C11.1387 3.94347 11.1317 3.99266 11.1481 4.03649L11.4361 4.80443C11.4565 4.85894 11.5037 4.89902 11.5607 4.91044C12.1069 5.01967 12.5 5.4992 12.5 6.05616V6.64486C12.5 7.27395 12.0452 7.81084 11.4247 7.91426C11.3282 7.93033 11.2466 7.9944 11.2081 8.08425L10.7485 7.88729L11.2081 8.08425L11.019 8.52548C10.9794 8.61795 10.9939 8.72474 11.0567 8.80331C11.4619 9.30972 11.4214 10.0398 10.9628 10.4984L10.6675 10.7937C10.2244 11.2368 9.5366 11.3214 8.99924 10.999L9.22173 10.6282L8.99924 10.999C8.91245 10.947 8.80797 10.9332 8.71065 10.961L8.57329 10.4802L8.71065 10.961L8.33402 11.0686C8.20459 11.1056 8.10899 11.2152 8.08996 11.3484C7.99556 12.0092 7.42967 12.5 6.76221 12.5H6.35514C5.72604 12.5 5.18916 12.0452 5.08574 11.4247C5.06967 11.3282 5.0056 11.2466 4.91575 11.2081L4.44751 11.0074L4.64447 10.5479L4.44751 11.0074C4.34478 10.9634 4.22716 10.9714 4.13132 11.0289C3.62941 11.33 2.99052 11.2729 2.55003 10.8875L2.13685 10.5259C1.61979 10.0735 1.55055 9.2942 1.97975 8.75771L2.37018 9.07006L1.97975 8.75771C2.03717 8.68593 2.05628 8.59079 2.03103 8.5024L1.93064 8.15103C1.90371 8.05678 1.81756 7.9918 1.71954 7.9918C1.04601 7.9918 0.5 7.4458 0.5 6.77226V5.97989C0.5 5.34365 1.01578 4.82787 1.65202 4.82787C1.71284 4.82787 1.7678 4.79163 1.79176 4.73573L1.99947 4.25107C2.03916 4.15846 2.03196 4.05242 1.98012 3.96602C1.66996 3.44908 1.75142 2.78738 2.1777 2.3611L2.59995 1.93884C3.00011 1.53868 3.63362 1.49366 4.08635 1.83321L3.8055 2.20767L4.08635 1.83321C4.1238 1.86129 4.17299 1.86834 4.21682 1.85191L4.98476 1.56393C5.03927 1.54349 5.07935 1.49635 5.09077 1.43927L5.58106 1.53733L5.09077 1.43927ZM6.5 4.5C5.39543 4.5 4.5 5.39543 4.5 6.5C4.5 7.60457 5.39543 8.5 6.5 8.5C7.60457 8.5 8.5 7.60457 8.5 6.5C8.5 5.39543 7.60457 4.5 6.5 4.5ZM3.5 6.5C3.5 4.84315 4.84315 3.5 6.5 3.5C8.15685 3.5 9.5 4.84315 9.5 6.5C9.5 8.15685 8.15685 9.5 6.5 9.5C4.84315 9.5 3.5 8.15685 3.5 6.5Z" />
</svg>
