<svg viewBox="0 0 14 23" xmlns="http://www.w3.org/2000/svg">
<path fill-rule="evenodd" d="M6.69565 0.236328L6.97122 0.374945C9.053 1.42212 12.0298 5.63918 11.4728 14.2782L11.4473 14.6736L11.0952 14.8553C7.26951 16.8289 4.03303 15.7082 2.80693 14.7944L2.54536 14.5995L2.52641 14.2738C2.40918 12.2592 2.51388 9.18033 3.03515 6.44297C3.29554 5.07557 3.66616 3.75897 4.18515 2.69388C4.69576 1.64598 5.40578 0.727854 6.4074 0.346171L6.69565 0.236328ZM3.90661 13.8439C4.91144 14.4287 7.24111 15.1123 10.0992 13.7846C10.4943 6.22437 8.0354 2.76628 6.62637 1.79597C6.21462 2.0572 5.81225 2.55075 5.44369 3.30713C5.00045 4.21678 4.65905 5.39932 4.41044 6.70486C3.9429 9.16005 3.82577 11.9285 3.90661 13.8439ZM1.98704 14.4091C2.36648 14.4832 2.61406 14.8508 2.54002 15.2302C2.50403 15.4147 2.41282 15.5922 2.35673 15.6985C2.31652 15.7747 2.26458 15.8673 2.21417 15.9571C2.18667 16.0061 2.15962 16.0544 2.13518 16.0987C1.97932 16.3812 1.83525 16.6704 1.75718 16.9623C1.68096 17.2473 1.67845 17.4953 1.76304 17.7191C1.81873 17.8665 1.92717 18.0431 2.14211 18.2336C2.21482 18.1479 2.286 18.048 2.34717 17.9362C2.50038 17.656 2.57382 17.3347 2.49034 16.9846C2.40066 16.6085 2.63281 16.231 3.00886 16.1413C3.38492 16.0516 3.76247 16.2838 3.85215 16.6598C4.0321 17.4144 3.85858 18.0903 3.57548 18.6079C3.29895 19.1136 2.90145 19.5016 2.55277 19.7182L2.18915 19.9441L1.82238 19.7233C1.12501 19.3035 0.673391 18.7961 0.453434 18.2141C0.234895 17.6358 0.278556 17.0723 0.404707 16.6006C0.529007 16.1358 0.743512 15.723 0.909355 15.4224C0.946656 15.3548 0.978959 15.2973 1.00794 15.2457C1.05014 15.1706 1.0853 15.1081 1.11858 15.045C1.15701 14.9722 1.16929 14.941 1.17105 14.9381C1.25561 14.5723 1.61566 14.3367 1.98704 14.4091ZM12.8286 14.9381C12.744 14.5723 12.3839 14.3367 12.0126 14.4091C11.6331 14.4832 11.3855 14.8508 11.4596 15.2302C11.4956 15.4147 11.5868 15.5922 11.6429 15.6985C11.6831 15.7747 11.735 15.8672 11.7854 15.9571C11.8129 16.0061 11.84 16.0544 11.8644 16.0987C12.0203 16.3812 12.1644 16.6704 12.2424 16.9623C12.3186 17.2473 12.3212 17.4953 12.2366 17.7191C12.1809 17.8665 12.0724 18.0431 11.8575 18.2336C11.7848 18.1479 11.7136 18.048 11.6524 17.9362C11.4992 17.656 11.4258 17.3347 11.5093 16.9846C11.5989 16.6085 11.3668 16.231 10.9907 16.1413C10.6147 16.0516 10.2371 16.2838 10.1475 16.6598C9.9675 17.4144 10.141 18.0903 10.4241 18.6079C10.7007 19.1136 11.0982 19.5016 11.4468 19.7182L11.8105 19.9441L12.1772 19.7233C12.8746 19.3035 13.3262 18.7961 13.5462 18.2141C13.7647 17.6358 13.721 17.0723 13.5949 16.6006C13.4706 16.1358 13.2561 15.723 13.0903 15.4224C13.0529 15.3548 13.0206 15.2973 12.9917 15.2457C12.9495 15.1706 12.9143 15.1081 12.881 15.045C12.8426 14.9722 12.8303 14.941 12.8286 14.9381ZM8.48881 16.711C8.86799 16.6356 9.23647 16.8819 9.31183 17.2611C9.81593 19.7977 8.38069 21.8283 7.3972 22.5615L7.00945 22.8506L6.60191 22.5902C5.62618 21.9667 5.1 20.9054 4.83547 19.9371C4.56933 18.9628 4.53237 17.9562 4.64147 17.2852C4.70351 16.9036 5.06315 16.6446 5.44474 16.7066C5.82632 16.7687 6.08536 17.1283 6.02332 17.5099C5.94947 17.9641 5.96736 18.7678 6.18599 19.5682C6.34907 20.1652 6.60441 20.6916 6.95371 21.0702C7.57165 20.3762 8.24458 19.0732 7.93868 17.534C7.86333 17.1548 8.10963 16.7863 8.48881 16.711Z" />
</svg>
