<svg  viewBox="0 0 49 47"  xmlns="http://www.w3.org/2000/svg">
<path fill-rule="evenodd"  d="M29.9999 1.60039C24.8084 1.60039 20.5999 5.80891 20.5999 11.0004C20.5999 16.1919 24.8084 20.4004 29.9999 20.4004C35.1914 20.4004 39.3999 16.1919 39.3999 11.0004C39.3999 10.669 39.6685 10.4004 39.9999 10.4004C40.3313 10.4004 40.5999 10.669 40.5999 11.0004C40.5999 16.8546 35.8541 21.6004 29.9999 21.6004C24.1457 21.6004 19.3999 16.8546 19.3999 11.0004C19.3999 5.14617 24.1457 0.400391 29.9999 0.400391C30.3313 0.400391 30.5999 0.66902 30.5999 1.00039C30.5999 1.33176 30.3313 1.60039 29.9999 1.60039ZM33.2578 10.7578H30.8984V11.5938H33.4453V13.1484H30.8984V15H28.9375V13.1484H27.3438V11.5938H28.9375V10.7578H27.3438V9.20312H28.9375V3.625H33.2578C34.1328 3.625 34.8776 3.77865 35.4922 4.08594C36.1068 4.39323 36.5781 4.81771 36.9062 5.35938C37.2344 5.89583 37.3984 6.51302 37.3984 7.21094C37.3984 7.95573 37.2318 8.59375 36.8984 9.125C36.5703 9.65104 36.0964 10.0547 35.4766 10.3359C34.862 10.6172 34.1224 10.7578 33.2578 10.7578ZM33.2188 9.20312H30.8984V5.1875H33.2578C33.7682 5.1875 34.1823 5.28646 34.5 5.48438C34.8177 5.67708 35.0521 5.92708 35.2031 6.23438C35.3542 6.54167 35.4297 6.8724 35.4297 7.22656C35.4297 7.6224 35.3542 7.96875 35.2031 8.26562C35.0521 8.5625 34.8151 8.79427 34.4922 8.96094C34.1693 9.1224 33.7448 9.20312 33.2188 9.20312ZM1.5999 30.0004C1.5999 24.8089 5.80843 20.6004 10.9999 20.6004C11.3313 20.6004 11.5999 20.3318 11.5999 20.0004C11.5999 19.669 11.3313 19.4004 10.9999 19.4004C5.14568 19.4004 0.399902 24.1462 0.399902 30.0004C0.399902 35.8546 5.14568 40.6004 10.9999 40.6004C16.8541 40.6004 21.5999 35.8546 21.5999 30.0004C21.5999 29.669 21.3313 29.4004 20.9999 29.4004C20.6685 29.4004 20.3999 29.669 20.3999 30.0004C20.3999 35.1919 16.1914 39.4004 10.9999 39.4004C5.80843 39.4004 1.5999 35.1919 1.5999 30.0004ZM11.8984 29.7578H14.2578C15.1224 29.7578 15.862 29.6172 16.4766 29.3359C17.0964 29.0547 17.5703 28.651 17.8984 28.125C18.2318 27.5938 18.3984 26.9557 18.3984 26.2109C18.3984 25.513 18.2344 24.8958 17.9062 24.3594C17.5781 23.8177 17.1068 23.3932 16.4922 23.0859C15.8776 22.7786 15.1328 22.625 14.2578 22.625H9.9375V28.2031H8.34375V29.7578H9.9375V30.5938H8.34375V32.1484H9.9375V34H11.8984V32.1484H14.4453V30.5938H11.8984V29.7578ZM11.8984 28.2031H14.2188C14.7448 28.2031 15.1693 28.1224 15.4922 27.9609C15.8151 27.7943 16.0521 27.5625 16.2031 27.2656C16.3542 26.9688 16.4297 26.6224 16.4297 26.2266C16.4297 25.8724 16.3542 25.5417 16.2031 25.2344C16.0521 24.9271 15.8177 24.6771 15.5 24.4844C15.1823 24.2865 14.7682 24.1875 14.2578 24.1875H11.8984V28.2031ZM28.5999 36.0004C28.5999 30.8089 32.8084 26.6004 37.9999 26.6004C38.3313 26.6004 38.5999 26.3318 38.5999 26.0004C38.5999 25.669 38.3313 25.4004 37.9999 25.4004C32.1457 25.4004 27.3999 30.1462 27.3999 36.0004C27.3999 41.8546 32.1457 46.6004 37.9999 46.6004C43.8541 46.6004 48.5999 41.8546 48.5999 36.0004C48.5999 35.669 48.3313 35.4004 47.9999 35.4004C47.6685 35.4004 47.3999 35.669 47.3999 36.0004C47.3999 41.1919 43.1914 45.4004 37.9999 45.4004C32.8084 45.4004 28.5999 41.1919 28.5999 36.0004ZM38.8984 35.7578H41.2578C42.1224 35.7578 42.862 35.6172 43.4766 35.3359C44.0964 35.0547 44.5703 34.651 44.8984 34.125C45.2318 33.5938 45.3984 32.9557 45.3984 32.2109C45.3984 31.513 45.2344 30.8958 44.9062 30.3594C44.5781 29.8177 44.1068 29.3932 43.4922 29.0859C42.8776 28.7786 42.1328 28.625 41.2578 28.625H36.9375V34.2031H35.3438V35.7578H36.9375V36.5938H35.3438V38.1484H36.9375V40H38.8984V38.1484H41.4453V36.5938H38.8984V35.7578ZM38.8984 34.2031H41.2188C41.7448 34.2031 42.1693 34.1224 42.4922 33.9609C42.8151 33.7943 43.0521 33.5625 43.2031 33.2656C43.3542 32.9688 43.4297 32.6224 43.4297 32.2266C43.4297 31.8724 43.3542 31.5417 43.2031 31.2344C43.0521 30.9271 42.8177 30.6771 42.5 30.4844C42.1823 30.2865 41.7682 30.1875 41.2578 30.1875H38.8984V34.2031Z"/>
</svg>
