<svg viewBox="0 0 18 23" xmlns="http://www.w3.org/2000/svg">
<path fill-rule="evenodd" d="M8.49992 1.60039C6.8983 1.60039 5.59992 2.89876 5.59992 4.50039C5.59992 6.10202 6.8983 7.40039 8.49992 7.40039C10.1016 7.40039 11.3999 6.10202 11.3999 4.50039C11.3999 2.89876 10.1016 1.60039 8.49992 1.60039ZM4.39992 4.50039C4.39992 2.23602 6.23556 0.400391 8.49992 0.400391C10.7643 0.400391 12.5999 2.23602 12.5999 4.50039C12.5999 5.77459 12.0187 6.91303 11.1069 7.66502C13.1494 8.14583 14.9194 9.2129 16.2474 10.2883C17.9425 11.6609 17.6631 14.0564 16.2193 15.4345C15.9796 15.6632 15.5998 15.6544 15.371 15.4147C15.1422 15.175 15.151 14.7952 15.3908 14.5664C16.4497 13.5557 16.4858 12.0254 15.4922 11.2208C13.7062 9.77459 11.1819 8.44388 8.37825 8.61542C5.49219 8.792 3.30427 10.2691 1.92019 11.7023C1.19165 12.4567 1.29896 13.6997 2.17928 14.5749C2.41427 14.8086 2.41537 15.1885 2.18173 15.4235C1.94809 15.6585 1.5682 15.6596 1.33321 15.4259C0.130276 14.2299 -0.255177 12.2274 1.057 10.8687C2.21084 9.67392 3.89704 8.42474 6.06801 7.8016C5.0562 7.05498 4.39992 5.85433 4.39992 4.50039ZM8.65491 12.5865C8.66498 12.5362 8.70915 12.5 8.76047 12.5H9.39248C9.4502 12.5 9.49991 12.5407 9.51123 12.5974C9.58363 12.9594 9.82961 13.2625 10.1689 13.4079L10.6685 13.622C11.0344 13.7789 11.4534 13.7504 11.7947 13.5456C11.8891 13.489 12.0099 13.5039 12.0877 13.5817L12.4716 13.9655C12.4994 13.9934 12.5026 14.0376 12.4789 14.0691C12.2579 14.3638 12.2025 14.7508 12.3318 15.0956L12.5936 15.7937C12.728 16.1522 13.0381 16.4159 13.4135 16.491C13.4638 16.501 13.5 16.5452 13.5 16.5965V17.1317C13.5 17.237 13.4239 17.3268 13.3201 17.3441C12.9116 17.4122 12.5659 17.6836 12.4028 18.0642L12.2308 18.4653C12.0561 18.873 12.12 19.3438 12.3971 19.6902C12.4616 19.7708 12.4551 19.8869 12.3822 19.9599L12.1137 20.2284C12.0206 20.3215 11.8761 20.3393 11.7632 20.2715C11.4577 20.0882 11.09 20.0398 10.7475 20.1376L10.4051 20.2355C9.92536 20.3725 9.57104 20.7788 9.50049 21.2727C9.48185 21.4031 9.37015 21.5 9.23839 21.5H8.86833C8.76305 21.5 8.67319 21.4239 8.65589 21.32C8.58781 20.9116 8.31643 20.5659 7.93581 20.4027L7.51014 20.2203C7.13502 20.0595 6.70552 20.0887 6.35556 20.2987C6.25468 20.3592 6.12625 20.3477 6.03771 20.2702L5.66209 19.9416C5.57647 19.8666 5.56501 19.7376 5.63608 19.6488C5.88138 19.3421 5.96302 18.9357 5.85514 18.5581L5.76388 18.2387C5.62231 17.7432 5.16945 17.4016 4.65415 17.4016C4.56903 17.4016 4.50002 17.3326 4.50002 17.2475V16.5272C4.50002 16.476 4.54155 16.4344 4.59277 16.4344C5.0299 16.4344 5.42497 16.1739 5.59717 15.7721L5.786 15.3315C5.94282 14.9656 5.91438 14.5466 5.70956 14.2053C5.65295 14.1109 5.66781 13.9901 5.74562 13.9123L6.12949 13.5285C6.15738 13.5006 6.20152 13.4974 6.23307 13.5211C6.52771 13.7421 6.91471 13.7976 7.25956 13.6682L7.9577 13.4064C8.31618 13.272 8.57983 12.962 8.65491 12.5865ZM8.76047 11.5C8.23247 11.5 7.77788 11.8727 7.67433 12.3904C7.66703 12.4269 7.64141 12.457 7.60657 12.4701L6.90844 12.7319C6.88312 12.7414 6.8547 12.7373 6.83307 12.7211C6.4034 12.3988 5.80216 12.4416 5.42238 12.8214L5.03852 13.2052C4.63624 13.6075 4.55937 14.2319 4.85207 14.7198C4.89168 14.7858 4.89718 14.8668 4.86685 14.9376L4.67802 15.3782C4.66341 15.4123 4.62987 15.4344 4.59277 15.4344C3.98926 15.4344 3.50002 15.9237 3.50002 16.5272V17.2475C3.50002 17.8849 4.01674 18.4016 4.65415 18.4016C4.72297 18.4016 4.78345 18.4473 4.80235 18.5134L4.89362 18.8329C4.91253 18.8991 4.89822 18.9703 4.85521 19.0241C4.44984 19.5308 4.51523 20.2668 5.00359 20.6941L5.37921 21.0228C5.79451 21.3862 6.39686 21.4401 6.87006 21.1562C6.94467 21.1114 7.03624 21.1052 7.11622 21.1395L7.54189 21.3219C7.60934 21.3508 7.65743 21.412 7.66949 21.4844C7.76717 22.0705 8.27421 22.5 8.86833 22.5H9.23839C9.8678 22.5 10.4014 22.0372 10.4904 21.4141C10.5052 21.3107 10.5794 21.2257 10.6798 21.197L11.0222 21.0992C11.0986 21.0773 11.1806 21.0881 11.2487 21.129C11.7551 21.4328 12.4033 21.353 12.8208 20.9355L13.0893 20.667C13.5226 20.2337 13.5608 19.544 13.178 19.0655C13.1313 19.0072 13.1206 18.9279 13.15 18.8593L13.3219 18.4581C13.3508 18.3907 13.4121 18.3426 13.4845 18.3305C14.0705 18.2329 14.5 17.7258 14.5 17.1317V16.5965C14.5 16.0685 14.1273 15.6139 13.6096 15.5104C13.5731 15.5031 13.543 15.4775 13.5299 15.4426L13.2681 14.7445C13.2586 14.7192 13.2627 14.6907 13.2789 14.6691C13.6012 14.2394 13.5584 13.6382 13.1787 13.2584L12.7948 12.8746C12.3925 12.4723 11.7681 12.3954 11.2803 12.6881C11.2142 12.7277 11.1332 12.7332 11.0624 12.7029L10.5629 12.4888C10.5262 12.4731 10.4996 12.4403 10.4918 12.4012C10.387 11.8772 9.92689 11.5 9.39248 11.5H8.76047ZM7.22729 17C7.22729 16.021 8.02097 15.2273 9.00002 15.2273C9.97907 15.2273 10.7727 16.021 10.7727 17C10.7727 17.979 9.97907 18.7727 9.00002 18.7727C8.02097 18.7727 7.22729 17.979 7.22729 17ZM9.00002 14.2273C7.46869 14.2273 6.22729 15.4687 6.22729 17C6.22729 18.5313 7.46869 19.7727 9.00002 19.7727C10.5314 19.7727 11.7727 18.5313 11.7727 17C11.7727 15.4687 10.5314 14.2273 9.00002 14.2273Z" />
</svg>
