<svg viewBox="0 0 22 13" xmlns="http://www.w3.org/2000/svg">
<path fill-rule="evenodd" d="M1.57637 1.00039C1.57637 0.66902 1.845 0.400391 2.17637 0.400391H14.5293C15.1469 0.400391 15.7176 0.877918 15.7176 1.55039V2.05039H18.647C20.2392 2.05039 21.5999 3.26665 21.5999 4.85039V9.80039C21.5999 10.4729 21.0293 10.9504 20.4117 10.9504H20.3395C20.0601 11.9216 19.1189 12.6004 18.0587 12.6004C16.9985 12.6004 16.0573 11.9216 15.7779 10.9504H15.7058C15.2912 10.9504 14.8978 10.7352 14.684 10.3904C14.633 10.397 14.5813 10.4004 14.5293 10.4004H9.75127C9.47188 11.3716 8.53068 12.0504 7.47049 12.0504C6.4103 12.0504 5.4691 11.3716 5.18971 10.4004H3.94108C3.60971 10.4004 3.34108 10.1318 3.34108 9.80039C3.34108 9.46902 3.60971 9.20039 3.94108 9.20039H14.5175V1.60039H2.17637C1.845 1.60039 1.57637 1.33176 1.57637 1.00039ZM6.5163 10.4004C6.7205 10.6659 7.05931 10.8504 7.47049 10.8504C7.88167 10.8504 8.22048 10.6659 8.42468 10.4004H6.5163ZM15.7176 9.75039H20.3999V4.85039C20.3999 4.00408 19.6537 3.25039 18.647 3.25039H15.7176V9.75039ZM17.1045 10.9504C17.3087 11.2159 17.6475 11.4004 18.0587 11.4004C18.4699 11.4004 18.8087 11.2159 19.0129 10.9504H17.1045ZM0.399902 3.47539C0.399902 3.14402 0.668532 2.87539 0.999902 2.87539H6.88226C7.21363 2.87539 7.48226 3.14402 7.48226 3.47539C7.48226 3.80676 7.21363 4.07539 6.88226 4.07539H0.999902C0.668532 4.07539 0.399902 3.80676 0.399902 3.47539ZM1.28226 5.95039C1.28226 5.61902 1.55088 5.35039 1.88226 5.35039H6.88226C7.21363 5.35039 7.48226 5.61902 7.48226 5.95039C7.48226 6.28176 7.21363 6.55039 6.88226 6.55039H1.88226C1.55088 6.55039 1.28226 6.28176 1.28226 5.95039Z"/>
</svg>
