<svg viewBox="0 0 30 30"  xmlns="http://www.w3.org/2000/svg">
<path  clip-rule="evenodd" d="M1.93548 15C1.93548 7.78467 7.78467 1.93548 15 1.93548C22.2153 1.93548 28.0645 7.78467 28.0645 15C28.0645 22.2153 22.2153 28.0645 15 28.0645C12.2477 28.0645 9.69683 27.2145 7.59192 25.7627L7.17589 25.4758L4.18056 26.599L5.25878 23.7238L4.90397 23.2923C3.04866 21.0363 1.93548 18.1494 1.93548 15ZM15 0C6.71573 0 0 6.71573 0 15C0 18.4113 1.1398 21.5586 3.05855 24.0788L0.873204 29.9064L6.91899 27.6392C9.25169 29.1335 12.0259 30 15 30C23.2843 30 30 23.2843 30 15C30 6.71573 23.2843 0 15 0ZM21.0126 19.2776L21.7957 20.8266C22.3102 21.8444 21.8103 23.113 20.7729 23.4215L19.6745 23.7481C16.8398 24.5911 13.8339 23.2682 12.3588 20.5285L9.87257 15.9106C8.35785 13.0974 8.85287 9.52972 11.0649 7.31608L11.9204 6.45997C12.6681 5.71168 13.8671 5.90099 14.384 6.84903L15.1043 8.16999C15.8807 9.59414 15.1019 11.4155 13.5922 11.7059C13.2206 11.7774 13.0245 12.2212 13.2074 12.5768L16.4087 18.8036C16.5994 19.1746 17.077 19.2223 17.328 18.8954C18.3356 17.5824 20.2562 17.7817 21.0126 19.2776Z" />
</svg>
