<svg viewBox="0 0 184 182" xmlns="http://www.w3.org/2000/svg">
<path d="M83.0651 170.022C79.9502 166.517 77.8736 163.011 76.3161 158.337C74.7586 154.247 73.7203 149.573 73.7203 144.314V36.809C73.7203 31.5505 74.7586 26.8764 76.3161 22.7865C77.8736 18.6966 80.4693 14.6067 83.0651 11.1011C83.5843 10.5169 84.6226 9.93257 85.1418 8.76404C82.546 6.42696 79.9502 4.67415 76.8353 2.92135C72.682 1.16854 69.0479 0 64.3755 0H32.1877C27.5153 0 23.3621 1.16854 19.728 2.92135C16.0939 4.67415 12.4598 7.59552 9.34482 10.5169C6.22988 14.0225 4.15326 17.5281 2.59579 22.2022C1.03831 26.2921 0 30.9663 0 36.2247V144.314C0 149.573 1.03831 154.247 2.59579 158.337C4.15326 162.427 6.74904 166.517 9.34482 170.022C12.4598 173.528 15.5747 175.865 19.728 177.618C23.3621 179.371 27.5153 180.539 32.1877 180.539H64.3755C68.5287 180.539 72.682 179.371 76.8353 177.618C79.9502 176.449 82.546 174.112 85.1418 171.775C84.6226 171.775 84.1034 170.607 83.0651 170.022ZM66.4521 139.64C66.4521 145.483 62.2988 150.157 57.1073 150.157H41.0134C35.8218 150.157 31.6686 145.483 31.6686 139.64V41.4831C31.6686 35.6404 35.8218 30.9663 41.0134 30.9663H56.5881C61.7797 30.9663 65.9329 35.6404 65.9329 41.4831V139.64H66.4521Z"/>
<path d="M180.67 22.7869C179.113 18.697 176.517 14.6071 173.921 11.1015C170.806 7.59588 167.691 5.25884 163.538 3.50603C159.385 1.75322 155.751 0.584686 151.078 0.584686H118.89C114.218 0.584686 110.065 1.75322 106.431 3.50603C102.796 5.25884 99.1624 8.18015 96.0475 11.1015C92.9325 14.6071 90.8559 18.1127 89.2984 22.7869C87.741 26.8768 86.7026 31.5509 86.7026 36.8093V144.899C86.7026 150.157 87.741 154.832 89.2984 158.922C90.8559 163.011 93.4517 167.101 96.0475 170.607C99.1624 174.112 102.277 176.45 106.431 178.202C110.065 179.955 114.218 181.124 118.89 181.124H151.078C155.231 181.124 159.385 179.955 163.538 178.202C167.691 176.45 170.806 173.528 173.921 170.607C177.036 167.101 179.113 163.596 180.67 158.922C182.228 154.832 183.266 150.157 183.266 144.899V36.8093C183.266 31.5509 182.228 26.8768 180.67 22.7869ZM152.636 139.641C152.636 145.483 148.482 150.157 143.291 150.157H127.197C122.005 150.157 117.852 145.483 117.852 139.641V41.4835C117.852 35.6408 122.005 30.9666 127.197 30.9666H143.291C148.482 30.9666 152.636 35.6408 152.636 41.4835V139.641Z"/>
</svg>
