<svg width="8" height="12" viewBox="0 0 8 12" fill="none" xmlns="http://www.w3.org/2000/svg">
<path fill-rule="evenodd" clip-rule="evenodd" d="M7.47359 4.63169C7.67704 4.89326 7.62992 5.27022 7.36835 5.47367C7.10678 5.67711 6.72981 5.62999 6.52637 5.36842L3.90666 2.00021L1.48639 5.35135C1.29238 5.61998 0.917325 5.68048 0.648689 5.48646C0.380054 5.29245 0.319561 4.9174 0.513576 4.64876L3.87109 -0.000104741L7.47359 4.63169ZM7.47359 7.63169C7.67704 7.89326 7.62992 8.27022 7.36835 8.47367C7.10678 8.67711 6.72981 8.62999 6.52637 8.36842L4.59991 5.89154V11C4.59991 11.3314 4.33128 11.6 3.99991 11.6C3.83423 11.6 3.68423 11.5328 3.57565 11.4243C3.5679 11.4165 3.56035 11.4085 3.55303 11.4004C3.45777 11.2942 3.39982 11.1538 3.39982 10.9999V5.70199L1.48639 8.35135C1.29238 8.61998 0.917325 8.68048 0.648689 8.48646C0.380054 8.29245 0.319561 7.9174 0.513576 7.64876L3.87109 2.9999L7.47359 7.63169Z" fill="#AB76B4"/>
</svg>
