<svg viewBox="0 0 28 22" xmlns="http://www.w3.org/2000/svg">
<path fill-rule="evenodd"  d="M7.79995 1.0002C7.79995 0.558368 7.44178 0.200195 6.99995 0.200195C6.55812 0.200195 6.19995 0.558368 6.19995 1.0002V6.0002C6.19995 6.44202 6.55812 6.8002 6.99995 6.8002C7.44178 6.8002 7.79995 6.44202 7.79995 6.0002V1.0002ZM3.21419 13.7929C4.13985 10.823 6.88918 8.8002 9.99992 8.8002C10.4417 8.8002 10.7999 8.44202 10.7999 8.0002C10.7999 7.55837 10.4417 7.2002 9.99992 7.2002C6.18892 7.2002 2.8207 9.6784 1.68667 13.3168L1.23616 14.7621C1.10469 15.184 1.34005 15.6325 1.76187 15.764C2.18368 15.8954 2.63221 15.6601 2.76368 15.2383L3.21419 13.7929ZM1.79995 19.0002C1.79995 18.3375 2.33721 17.8002 2.99995 17.8002H8.99995C9.66269 17.8002 10.2 18.3375 10.2 19.0002C10.2 19.6629 9.66269 20.2002 8.99995 20.2002H2.99995C2.33721 20.2002 1.79995 19.6629 1.79995 19.0002ZM2.99995 16.2002C1.45355 16.2002 0.199951 17.4538 0.199951 19.0002C0.199951 20.5466 1.45355 21.8002 2.99995 21.8002H8.99995C9.95158 21.8002 10.7923 21.3255 11.2983 20.5999H26.5181C27.1156 20.5999 27.6 20.1155 27.6 19.518C27.6 18.9245 27.1221 18.4391 26.5248 18.4361C23.6943 18.4216 19.9052 18.4052 16.7773 18.401C15.2136 18.3988 13.8139 18.3997 12.7816 18.4054C12.3732 18.4076 12.0212 18.4107 11.7386 18.4145C11.4694 17.1493 10.3455 16.2002 8.99995 16.2002H2.99995ZM23.6499 20.9999C23.6499 20.8066 23.8066 20.6499 23.9999 20.6499H25.9999C26.1932 20.6499 26.3499 20.8066 26.3499 20.9999C26.3499 21.1932 26.1932 21.3499 25.9999 21.3499H23.9999C23.8066 21.3499 23.6499 21.1932 23.6499 20.9999ZM11.2 8.0002C11.2 7.55837 11.5581 7.2002 12 7.2002H15C15.4418 7.2002 15.8 7.55837 15.8 8.0002C15.8 8.44202 15.4418 8.8002 15 8.8002H12C11.5581 8.8002 11.2 8.44202 11.2 8.0002Z"/>
</svg>
