<svg viewBox="0 0 210 108"  xmlns="http://www.w3.org/2000/svg">
<path d="M0 0H25.4595V10.1788H10.2038V20.4326H22.9585V30.6114H10.2038V50.994H0V0Z" />
<path d="M29.7808 0H39.9595V50.994H29.7808V0Z" />
<path d="M43.4373 10.2038V0H74.0486V10.1788H63.7948V50.994H53.616V10.2038H43.4373Z" />
<path d="M97.6635 50.994L88.5101 26.4598V50.994H78.3313V0H89.5105L98.7139 24.6092V0H108.893V50.994H97.6635Z" />
<path d="M113.792 0H139.251V10.1788H123.971V20.4326H136.726V30.6114H123.971V40.7902H139.251V50.994H113.792V0Z" />
<path d="M163.928 50.994H153.75C152.349 50.994 151.024 50.7189 149.773 50.1937C148.548 49.6685 147.447 48.9432 146.522 48.0179C145.597 47.0925 144.871 46.0171 144.346 44.7666C143.821 43.5412 143.546 42.2157 143.546 40.7902V35.6883H153.725V40.7902H163.903V37.8141L145.046 18.907C144.021 17.8817 143.521 16.6812 143.521 15.2807V10.2038C143.521 8.80327 143.796 7.47778 144.321 6.22732C144.846 5.00186 145.572 3.90145 146.497 2.97611C147.422 2.05076 148.498 1.32549 149.748 0.800298C150.974 0.275103 152.299 0 153.725 0H163.903C165.254 0 166.554 0.275103 167.805 0.800298C169.055 1.32549 170.131 2.05076 171.056 2.97611C171.981 3.90145 172.707 4.97685 173.257 6.22732C173.807 7.45277 174.082 8.77827 174.082 10.2038V15.3057H163.903V10.2038H153.725V13.1799L172.582 32.0869C173.582 33.1123 174.107 34.3128 174.107 35.7133V40.8152C174.107 42.2157 173.832 43.5412 173.282 44.7917C172.732 46.0171 172.006 47.1175 171.081 48.0429C170.156 48.9682 169.08 49.6935 167.83 50.2187C166.579 50.7439 165.279 50.994 163.928 50.994Z" />
<path d="M199.822 50.994H189.643C188.242 50.994 186.917 50.7189 185.666 50.1937C184.441 49.6685 183.341 48.9432 182.415 48.0179C181.49 47.0925 180.765 46.0171 180.239 44.7666C179.714 43.5412 179.439 42.2157 179.439 40.7902V35.6883H189.618V40.7902H199.797V37.8141L180.94 18.907C179.914 17.8817 179.414 16.6812 179.414 15.2807V10.2038C179.414 8.80327 179.689 7.47778 180.214 6.22732C180.74 5.00186 181.465 3.90145 182.39 2.97611C183.316 2.05076 184.391 1.32549 185.641 0.800298C186.867 0.275103 188.192 0 189.618 0H199.797C201.147 0 202.448 0.275103 203.698 0.800298C204.949 1.32549 206.024 2.05076 206.949 2.97611C207.875 3.90145 208.6 4.97685 209.15 6.22732C209.7 7.45277 209.975 8.77827 209.975 10.2038V15.3057H199.797V10.2038H189.618V13.1799L208.475 32.0869C209.475 33.1123 210 34.3128 210 35.7133V40.8152C210 42.2157 209.725 43.5412 209.175 44.7917C208.625 46.0171 207.9 47.1175 206.974 48.0429C206.049 48.9682 204.974 49.6935 203.723 50.2187C202.498 50.7439 201.172 50.994 199.822 50.994Z" />
<path d="M10.2554 97.0518H25.5361V107.231H0.0766602V56.2616H10.2554V97.0518Z" />
<path d="M111.488 56.3112H121.667V61.4131C121.667 62.2884 121.467 63.0887 121.067 63.7889L111.663 81.8206L121.067 99.7773C121.467 100.528 121.667 101.328 121.667 102.153V107.255H111.488V103.404L102.835 86.8725H101.309V107.23H91.1306V56.3112H101.309V76.6687H102.835L111.488 60.1376V56.3112Z" />
<path d="M55.4447 104.255C54.5194 103.329 53.7941 102.254 53.2689 101.003C52.7437 99.7779 52.4686 98.4524 52.4686 97.0268V66.4405C52.4686 65.04 52.7437 63.7145 53.2689 62.464C53.7941 61.2385 54.5194 60.1381 55.4447 59.2128C55.6448 59.0127 55.8699 58.8126 56.0949 58.6126C55.3197 57.9623 54.4444 57.4371 53.494 57.012C52.2435 56.4868 50.943 56.2117 49.5925 56.2117H39.4138C38.0132 56.2117 36.6877 56.4868 35.4373 57.012C34.2118 57.5372 33.1114 58.2624 32.1861 59.1878C31.2607 60.1131 30.5355 61.1885 30.0103 62.439C29.4851 63.6644 29.21 64.9899 29.21 66.4155V97.0268C29.21 98.4274 29.4851 99.7529 30.0103 101.003C30.5355 102.229 31.2607 103.329 32.1861 104.255C33.1114 105.18 34.1868 105.905 35.4373 106.43C36.6627 106.956 37.9882 107.231 39.4138 107.231H49.5925C50.943 107.231 52.2435 106.956 53.494 106.43C54.4694 106.03 55.3197 105.48 56.0949 104.83C55.8699 104.68 55.6448 104.48 55.4447 104.255ZM50.0177 95.7014C50.0177 97.377 48.6672 98.7275 46.9916 98.7275H41.9147C40.2391 98.7275 38.8886 97.377 38.8886 95.7014V67.866C38.8886 66.1904 40.2391 64.8399 41.9147 64.8399H46.9916C48.6672 64.8399 50.0177 66.1904 50.0177 67.866V95.7014Z" />
<path d="M86.4797 62.4638C85.9295 61.2383 85.2042 60.1379 84.2789 59.2126C83.3535 58.2872 82.2781 57.5619 81.0277 57.0367C79.7772 56.5116 78.4767 56.2365 77.1262 56.2365H66.9474C65.5469 56.2365 64.2214 56.5116 62.9709 57.0367C61.7455 57.5619 60.6451 58.2872 59.7197 59.2126C58.7944 60.1379 58.0691 61.2133 57.5439 62.4638C57.0187 63.6892 56.7437 65.0147 56.7437 66.4402V97.0516C56.7437 98.4521 57.0187 99.7776 57.5439 101.028C58.0691 102.254 58.7944 103.354 59.7197 104.279C60.6451 105.205 61.7205 105.93 62.9709 106.455C64.1964 106.98 65.5219 107.255 66.9474 107.255H77.1262C78.4767 107.255 79.7772 106.98 81.0277 106.455C82.2781 105.93 83.3535 105.205 84.2789 104.279C85.2042 103.354 85.9295 102.279 86.4797 101.028C87.0299 99.8026 87.305 98.4772 87.305 97.0516V66.4402C87.305 65.0397 87.0299 63.7142 86.4797 62.4638ZM77.5514 95.7011C77.5514 97.3767 76.2009 98.7272 74.5253 98.7272H69.4484C67.7727 98.7272 66.4222 97.3767 66.4222 95.7011V67.8658C66.4222 66.1902 67.7727 64.8396 69.4484 64.8396H74.5253C76.2009 64.8396 77.5514 66.1902 77.5514 67.8658V95.7011Z" />
<path d="M156.91 81.6842C156.91 79.1333 158.06 76.8824 159.836 75.3318C158.335 74.0314 156.409 73.2061 154.259 73.2061C149.557 73.2061 145.755 77.0075 145.755 81.7092C145.755 86.411 149.557 90.2124 154.259 90.2124C156.409 90.2124 158.335 89.3871 159.836 88.0866C158.06 86.486 156.91 84.2352 156.91 81.6842Z" />
<path d="M167.595 90.4377C172.277 90.4377 176.073 86.6083 176.073 81.8845C176.073 77.1607 172.277 73.3313 167.595 73.3313C162.913 73.3313 159.117 77.1607 159.117 81.8845C159.117 86.6083 162.913 90.4377 167.595 90.4377Z" />
</svg>
