<svg viewBox="0 0 9 9"  xmlns="http://www.w3.org/2000/svg">
<path d="M8.44461 4.59689C8.66729 4.84229 8.64887 5.22174 8.40347 5.44442C8.15807 5.6671 7.77861 5.64868 7.55594 5.40328L4.38737 1.91139L1.45911 5.3867C1.24559 5.64011 0.86707 5.67244 0.613662 5.45892C0.360253 5.2454 0.327917 4.86688 0.541437 4.61347L4.35391 0.0887758L8.44461 4.59689ZM8.44461 7.59689C8.66729 7.84229 8.64887 8.22174 8.40347 8.44442C8.15807 8.6671 7.77861 8.64868 7.55594 8.40328L4.38737 4.91139L1.45911 8.3867C1.24559 8.64011 0.86707 8.67244 0.613662 8.45892C0.360253 8.2454 0.327917 7.86688 0.541437 7.61347L4.35391 3.08878L8.44461 7.59689Z"/>
</svg>
