<svg viewBox="0 0 125 41" xmlns="http://www.w3.org/2000/svg">
<path fill-rule="evenodd" d="M0 12C0 5.37258 5.37258 0 12 0H78.2C84.8274 0 90.2 5.37258 90.2 12V29C90.2 35.6274 84.8274 41 78.2 41H12C5.37259 41 0 35.6274 0 29V12ZM8.94531 8.2002H81.2544V33.5457H8.94531V8.2002ZM106.778 29C106.778 35.5755 101.489 40.9158 94.9336 40.999V33.5456H97.8325V8.20018H94.9336V0.000976562C101.489 0.0842201 106.778 5.42448 106.778 12V29ZM112.934 40.999C119.489 40.9158 124.778 35.5755 124.778 29V12C124.778 5.42448 119.489 0.0842201 112.934 0.000976562V8.20018H115.833V33.5456H112.934V40.999ZM62.132 24.92V15.66C62.132 15.2333 62.0453 14.8333 61.872 14.46C61.712 14.0866 61.492 13.76 61.212 13.48C60.932 13.2 60.5987 12.98 60.212 12.82C59.8387 12.66 59.4453 12.58 59.032 12.58H55.952C55.5253 12.58 55.1253 12.66 54.752 12.82C54.3787 12.98 54.052 13.2 53.772 13.48C53.492 13.76 53.272 14.0866 53.112 14.46C52.952 14.8333 52.872 15.2333 52.872 15.66V24.92C52.872 25.3466 52.952 25.7466 53.112 26.12C53.272 26.4933 53.492 26.82 53.772 27.1C54.052 27.38 54.3787 27.6 54.752 27.76C55.1253 27.92 55.5253 28 55.952 28H59.032C59.4453 28 59.8387 27.92 60.212 27.76C60.5987 27.6 60.932 27.38 61.212 27.1C61.492 26.82 61.712 26.4933 61.872 26.12C62.0453 25.7466 62.132 25.3466 62.132 24.92ZM59.032 15.66V16.56L55.952 19.66V15.66H59.032ZM55.952 24.92V24.02L59.032 20.92V24.92H55.952ZM68.7358 24.92L74.1358 18.18C74.3624 17.8866 74.4758 17.56 74.4758 17.2V15.66C74.4758 15.2333 74.3891 14.8333 74.2158 14.46C74.0558 14.0866 73.8358 13.76 73.5558 13.48C73.2758 13.2 72.9424 12.98 72.5558 12.82C72.1824 12.66 71.7891 12.58 71.3758 12.58H68.2958C67.8691 12.58 67.4691 12.66 67.0958 12.82C66.7224 12.98 66.3958 13.2 66.1158 13.48C65.8358 13.76 65.6158 14.0866 65.4558 14.46C65.2958 14.8333 65.2158 15.2333 65.2158 15.66V17.2H68.2958V15.66H71.3758V16.66L65.5558 23.96C65.3291 24.2266 65.2158 24.5466 65.2158 24.92V28H74.4758V24.92H68.7358Z"/>
</svg>
