<svg width="143" height="41" viewBox="0 0 143 41" fill="none" xmlns="http://www.w3.org/2000/svg">
<path fill-rule="evenodd" clip-rule="evenodd" d="M0 12C0 5.37258 5.37258 0 12 0H78.2C84.8274 0 90.2 5.37258 90.2 12V29C90.2 35.6274 84.8274 41 78.2 41H12C5.37259 41 0 35.6274 0 29V12ZM8.94531 8.2002H81.2544V33.5457H8.94531V8.2002ZM106.778 29C106.778 35.5755 101.489 40.9158 94.9336 40.999V33.5456H97.8325V8.20018H94.9336V0.000976562C101.489 0.0842201 106.778 5.42448 106.778 12V29ZM112.934 40.999C119.489 40.9158 124.778 35.5755 124.778 29V12C124.778 5.42448 119.489 0.0842201 112.934 0.000976562V8.20018H115.833V33.5456H112.934V40.999ZM142.778 29C142.778 35.5755 137.489 40.9158 130.934 40.999V33.5456H133.833V8.20018H130.934V0.000976562C137.489 0.0842201 142.778 5.42448 142.778 12V29ZM74.0558 20.3C74.1891 20.5266 74.2891 20.7733 74.3558 21.04C74.4358 21.2933 74.4758 21.56 74.4758 21.84V24.92C74.4758 25.3466 74.3891 25.7466 74.2158 26.12C74.0558 26.4933 73.8358 26.82 73.5558 27.1C73.2758 27.38 72.9424 27.6 72.5558 27.76C72.1824 27.92 71.7891 28 71.3758 28H68.2958C67.8691 28 67.4691 27.92 67.0958 27.76C66.7224 27.6 66.3958 27.38 66.1158 27.1C65.8358 26.82 65.6158 26.4933 65.4558 26.12C65.2958 25.7466 65.2158 25.3466 65.2158 24.92V23.38H68.2958V24.92H71.3758V21.84H68.2958V18.74H71.3758V15.66H68.2958V17.2H65.2158V15.66C65.2158 15.2333 65.2958 14.8333 65.4558 14.46C65.6158 14.0866 65.8358 13.76 66.1158 13.48C66.3958 13.2 66.7224 12.98 67.0958 12.82C67.4691 12.66 67.8691 12.58 68.2958 12.58H71.3758C71.7891 12.58 72.1824 12.66 72.5558 12.82C72.9424 12.98 73.2758 13.2 73.5558 13.48C73.8358 13.76 74.0558 14.0866 74.2158 14.46C74.3891 14.8333 74.4758 15.2333 74.4758 15.66V18.74C74.4758 19.0333 74.4358 19.3133 74.3558 19.58C74.2891 19.8333 74.1891 20.0733 74.0558 20.3ZM62.132 24.92V15.66C62.132 15.2333 62.0453 14.8333 61.872 14.46C61.712 14.0866 61.492 13.76 61.212 13.48C60.932 13.2 60.5987 12.98 60.212 12.82C59.8387 12.66 59.4453 12.58 59.032 12.58H55.952C55.5253 12.58 55.1253 12.66 54.752 12.82C54.3787 12.98 54.052 13.2 53.772 13.48C53.492 13.76 53.272 14.0866 53.112 14.46C52.952 14.8333 52.872 15.2333 52.872 15.66V24.92C52.872 25.3466 52.952 25.7466 53.112 26.12C53.272 26.4933 53.492 26.82 53.772 27.1C54.052 27.38 54.3787 27.6 54.752 27.76C55.1253 27.92 55.5253 28 55.952 28H59.032C59.4453 28 59.8387 27.92 60.212 27.76C60.5987 27.6 60.932 27.38 61.212 27.1C61.492 26.82 61.712 26.4933 61.872 26.12C62.0453 25.7466 62.132 25.3466 62.132 24.92ZM59.032 15.66V16.56L55.952 19.66V15.66H59.032ZM55.952 24.92V24.02L59.032 20.92V24.92H55.952Z" fill="white"/>
</svg>
