<svg viewBox="0 0 11 20" xmlns="http://www.w3.org/2000/svg">
<path d="M5.30993 0.666016L10.6318 7.50841C10.903 7.85717 10.8402 8.35979 10.4915 8.63104C10.1427 8.9023 9.64008 8.83947 9.36882 8.49071L5.35735 3.3331L1.64885 8.46795C1.39016 8.82613 0.890094 8.90679 0.531913 8.6481C0.173733 8.38942 0.0930765 7.88935 0.351762 7.53117L5.30993 0.666016ZM5.30871 4.51994L10.6659 12.5558C10.911 12.9234 10.8117 13.4201 10.4441 13.6652C10.0764 13.9103 9.57975 13.8109 9.33467 13.4433L6.16066 8.68231V18.9996C6.16066 19.4414 5.80249 19.7996 5.36066 19.7996C4.91883 19.7996 4.56066 19.4414 4.56066 18.9996V8.76811L1.68052 13.4206C1.44796 13.7963 0.954893 13.9123 0.579222 13.6798C0.203551 13.4472 0.0875354 12.9541 0.320094 12.5785L5.30871 4.51994Z"/>
</svg>
