<svg viewBox="0 0 40 22"  xmlns="http://www.w3.org/2000/svg">
<path fill-rule="evenodd"  d="M38 1.8H2C1.88954 1.8 1.8 1.88954 1.8 2V20C1.8 20.1105 1.88954 20.2 2 20.2H38C38.1105 20.2 38.2 20.1105 38.2 20V2C38.2 1.88954 38.1105 1.8 38 1.8ZM2 0C0.895431 0 0 0.89543 0 2V20C0 21.1046 0.895431 22 2 22H38C39.1046 22 40 21.1046 40 20V2C40 0.895431 39.1046 0 38 0H2ZM6.00005 13.3008C5.61345 13.3008 5.30005 13.6142 5.30005 14.0008C5.30005 14.3874 5.61345 14.7008 6.00005 14.7008H18.5C18.8866 14.7008 19.2 14.3874 19.2 14.0008C19.2 13.6142 18.8866 13.3008 18.5 13.3008H6.00005ZM6.00005 16.3008C5.61345 16.3008 5.30005 16.6142 5.30005 17.0008C5.30005 17.3874 5.61345 17.7008 6.00005 17.7008H30.5C30.8866 17.7008 31.2001 17.3874 31.2001 17.0008C31.2001 16.6142 30.8866 16.3008 30.5 16.3008H6.00005ZM7.4 8.6V5.4H15.6V8.6H7.4ZM6 5C6 4.44772 6.44772 4 7 4H16C16.5523 4 17 4.44772 17 5V9C17 9.55228 16.5523 10 16 10H7C6.44771 10 6 9.55228 6 9V5Z" />
</svg>
