<svg viewBox="0 0 95 13" fill="none" xmlns="http://www.w3.org/2000/svg">
<path d="M5.03201 0.654053H4.24801L0.958008 12.2601H1.74201L5.03201 0.654053ZM8.14449 0.654053H8.92849L5.63849 12.2601H4.85449L8.14449 0.654053ZM12.825 0.654053H12.041L8.75098 12.2601H9.53498L12.825 0.654053ZM15.9375 0.654053H16.7215L13.4315 12.2601H12.6475L15.9375 0.654053ZM20.6179 0.654053H19.8339L16.5439 12.2601H17.3279L20.6179 0.654053ZM23.7304 0.654053H24.5144L21.2244 12.2601H20.4404L23.7304 0.654053ZM28.4109 0.654053H27.6269L24.3369 12.2601H25.1209L28.4109 0.654053ZM31.5234 0.654053H32.3074L29.0174 12.2601H28.2334L31.5234 0.654053ZM36.2039 0.654053H35.4199L32.1299 12.2601H32.9139L36.2039 0.654053ZM39.3164 0.654053H40.1004L36.8104 12.2601H36.0264L39.3164 0.654053ZM43.9969 0.654053H43.2129L39.9229 12.2601H40.7069L43.9969 0.654053ZM47.1093 0.654053H47.8933L44.6033 12.2601H43.8193L47.1093 0.654053ZM51.7898 0.654053H51.0058L47.7158 12.2601H48.4998L51.7898 0.654053ZM54.9023 0.654053H55.6863L52.3963 12.2601H51.6123L54.9023 0.654053ZM59.5828 0.654053H58.7988L55.5088 12.2601H56.2928L59.5828 0.654053ZM62.6953 0.654053H63.4793L60.1893 12.2601H59.4053L62.6953 0.654053ZM67.3758 0.654053H66.5918L63.3018 12.2601H64.0858L67.3758 0.654053ZM70.4882 0.654053H71.2722L67.9822 12.2601H67.1982L70.4882 0.654053ZM75.1687 0.654053H74.3847L71.0947 12.2601H71.8787L75.1687 0.654053ZM78.2812 0.654053H79.0652L75.7752 12.2601H74.9912L78.2812 0.654053ZM82.9617 0.654053H82.1777L78.8877 12.2601H79.6717L82.9617 0.654053ZM86.0742 0.654053H86.8582L83.5682 12.2601H82.7842L86.0742 0.654053ZM90.7547 0.654053H89.9707L86.6807 12.2601H87.4647L90.7547 0.654053ZM94.6511 0.654053H93.8671L90.5771 12.2601H91.3611L94.6511 0.654053Z"/>
</svg>
