<svg viewBox="0 0 35 35" xmlns="http://www.w3.org/2000/svg">
<path d="M26.9007 23.5211C26.9007 24.8464 25.7944 25.9612 24.3798 25.9612C22.965 25.9612 21.859 24.8464 21.859 23.5211C21.859 22.1961 22.9649 21.081 24.3798 21.081C25.7944 21.081 26.9007 22.1961 26.9007 23.5211ZM24.3798 28.0311C26.8925 28.0311 28.9706 26.0341 28.9706 23.5211C28.9706 21.0081 26.8925 19.0115 24.3798 19.0115C21.8668 19.0115 19.7891 21.0081 19.7891 23.5211C19.7891 26.0341 21.8668 28.0311 24.3798 28.0311Z"/>
<path d="M24.8909 31.9028L23.8689 31.9527C23.8689 31.1713 23.9915 30.2572 23.0045 29.8819L20.596 28.9666C19.6998 28.626 19.1705 29.2633 18.5694 29.7917L17.9485 29.1382C18.4662 28.6323 19.1732 28.0799 18.7426 27.1335L17.6674 24.7692C17.2713 23.8982 16.4193 23.9784 15.6238 23.9229L15.7216 22.967C16.47 23.0233 17.441 23.2105 17.8494 22.184L18.775 19.8574C19.1175 18.9966 18.5648 18.5064 18.1031 18.0552L18.6871 17.4406C19.1986 17.9405 19.753 18.6051 20.6828 18.1747L23.2463 16.9881C24.0876 16.5988 24.0232 15.8607 24.0232 15.1888H24.7362C24.7362 15.9258 24.6338 16.7525 25.5427 17.1471L27.9587 18.1964C28.8892 18.6007 29.4647 17.9041 30.0913 17.3529L30.6403 17.848C30.1185 18.4146 29.4381 18.9754 29.8579 19.8983L30.9315 22.2594C31.3401 23.1577 32.1805 23.0453 32.9303 23.0453V23.9972C32.1789 23.9972 31.3592 23.8844 30.9393 24.7564L29.8785 26.9593C29.4038 27.9455 30.1939 28.535 30.7573 29.0854L29.9701 29.8034C29.4331 29.2784 28.9053 28.6098 27.9772 28.9834L25.7312 29.8873C24.7786 30.2703 24.891 31.1438 24.891 31.9029L24.8909 31.9028ZM32.6667 18.7027C33.1717 18.1547 33.129 17.3055 32.5786 16.8091L31.0005 15.3853C30.4926 14.9273 29.7203 14.9227 29.2072 15.3739L28.3639 16.1157L26.8061 15.439V14.4561C26.8061 13.6952 26.1817 13.1191 25.462 13.1191H23.2979C22.5778 13.1191 21.9537 13.6952 21.9537 14.4561V15.3053L20.2641 16.0876L19.61 15.4483C19.0737 14.9245 18.2086 14.9391 17.6912 15.4838L16.1024 17.1558C15.5989 17.6857 15.6156 18.5184 16.1372 19.0281L16.67 19.5489L16.124 20.9212L15.1735 20.8498C14.4684 20.7968 13.8109 21.3056 13.7352 22.0478L13.4876 24.4662C13.4084 25.2403 13.9969 25.8843 14.7308 25.9356L15.9632 26.0216L16.6441 27.5189L15.9825 28.1652C15.4609 28.6751 15.4442 29.5076 15.9477 30.0378L17.5479 31.7215C18.0468 32.2467 18.8732 32.2812 19.4151 31.8047L20.2667 31.0556L21.799 31.6381V32.7217C21.799 33.5101 22.4657 34.0937 23.209 34.0574L25.6828 33.9365C26.3777 33.9027 26.9608 33.3348 26.9608 32.6013V31.6236L28.3139 31.0791L29.0108 31.7602C29.5215 32.2592 30.3347 32.2723 30.8613 31.7919L32.7279 30.0893C33.2947 29.5723 33.311 28.6872 32.7617 28.1499L31.9732 27.3797L32.6053 26.0672H33.656C34.3757 26.0672 35.0002 25.4908 35.0002 24.7298V22.3124C35.0002 21.5518 34.3757 20.9754 33.656 20.9754H32.6215L31.9447 19.487L32.6667 18.7028V18.7027Z"/>
<path d="M27.5189 7.44321V12.19C27.5189 12.7614 27.9823 13.2247 28.5537 13.2247C29.1255 13.2247 29.5888 12.7614 29.5888 12.19V6.95099C29.5888 6.39976 29.2514 5.91902 28.7596 5.71602L15.1544 0.102214C14.8255 -0.0336304 14.4557 -0.0336304 14.1264 0.101523L0.831002 5.5645C0.338521 5.76718 0 6.24835 0 6.80054V19.7407C0 27.6396 6.64255 33.95 14.6627 33.7722L14.6168 31.7027C7.71076 31.8562 2.06991 26.4324 2.06991 19.7407V7.29334L14.6389 2.12861L27.5189 7.44321H27.5189Z"/>
</svg>
