<svg width="26" height="8" viewBox="0 0 26 8" fill="none" xmlns="http://www.w3.org/2000/svg">
<path fill-rule="evenodd" clip-rule="evenodd" d="M5.61962 1.88429C5.65714 1.83153 5.71787 1.8002 5.78261 1.8002H20.7111C20.7802 1.8002 20.8444 1.83586 20.8809 1.89453L24.3207 7.42284C24.5542 7.79797 25.0475 7.91286 25.4226 7.67944C25.7978 7.44602 25.9127 6.95269 25.6792 6.57755L22.2394 1.04925C21.9109 0.521222 21.333 0.200195 20.7111 0.200195H5.78261C5.19996 0.200195 4.65335 0.482219 4.31569 0.957053L0.348029 6.53658C0.0919788 6.89665 0.176304 7.39611 0.536374 7.65216C0.896444 7.90821 1.39591 7.82388 1.65196 7.46381L5.61962 1.88429ZM6.99993 3.2002C6.5581 3.2002 6.19993 3.55837 6.19993 4.0002C6.19993 4.44202 6.5581 4.8002 6.99993 4.8002H19.9999C20.4418 4.8002 20.7999 4.44202 20.7999 4.0002C20.7999 3.55837 20.4418 3.2002 19.9999 3.2002H6.99993Z" fill="black"/>
</svg>
