<svg width="24" height="24" viewBox="0 0 24 24" fill="none" xmlns="http://www.w3.org/2000/svg">
<path d="M20.6603 17C19.7826 18.5202 18.5202 19.7826 17 20.6603C15.4798 21.5379 13.7554 22 12 22C10.2446 22 8.52019 21.5379 7 20.6603C5.47981 19.7826 4.21743 18.5202 3.33975 17C2.46206 15.4798 2 13.7554 2 12C2 10.2446 2.46206 8.52019 3.33975 7C4.21743 5.47981 5.47981 4.21743 7 3.33975C8.52019 2.46206 10.2446 2 12 2" stroke="#2E2E2E" stroke-width="2"/>
<path d="M12 5V11C12 11.5523 12.4477 12 13 12H19" stroke="#2E2E2E" stroke-width="2" stroke-linecap="round"/>
</svg>
