<svg  viewBox="0 0 42 29"  xmlns="http://www.w3.org/2000/svg">
<path fill-rule="evenodd"  d="M29.3461 1.91544C29.502 1.87587 29.6613 1.96623 29.7073 2.12031L30.1964 3.75691L12.0734 6.30049L29.3461 1.91544ZM33.2036 7H17.1622L32.6034 4.83281C32.7679 4.80973 32.9198 4.92469 32.9423 5.08926L33.2036 7ZM34.3294 4.89957L34.6166 7H40C41.1046 7 42 7.89543 42 9V27C42 28.1046 41.1046 29 40 29H2C0.895428 29 0 28.1046 0 27V9C0 7.89543 0.89543 7 2 7H4.0109C4.09614 6.91663 4.20384 6.85394 4.32773 6.82249L29.0016 0.558482C29.8848 0.334251 30.7878 0.846332 31.0487 1.71944L31.5988 3.56008L32.4088 3.4464C33.3409 3.31558 34.2019 3.96702 34.3294 4.89957ZM40 9H2V27H40V9ZM20.5391 19.8516H22.75C23.625 19.8516 24.375 19.7109 25 19.4297C25.6302 19.1432 26.1146 18.7318 26.4531 18.1953C26.7969 17.6589 26.9688 17.0156 26.9688 16.2656C26.9688 15.5573 26.7995 14.9297 26.4609 14.3828C26.1276 13.8359 25.6484 13.4063 25.0234 13.0938C24.3984 12.7813 23.6406 12.625 22.75 12.625H18.3906V18.1641H16.8047V19.8516H18.3906V20.5859H16.8047V22.2813H18.3906V24H20.5391V22.2813H23.0625V20.5859H20.5391V19.8516ZM20.5391 18.1641H22.7109C23.2109 18.1641 23.6146 18.0859 23.9219 17.9297C24.2292 17.7682 24.4531 17.5469 24.5938 17.2656C24.7344 16.9792 24.8047 16.651 24.8047 16.2813C24.8047 15.9375 24.7318 15.6172 24.5859 15.3203C24.4401 15.0234 24.2161 14.7839 23.9141 14.6016C23.6172 14.4193 23.2318 14.3281 22.7578 14.3281H20.5391V18.1641Z"/>
</svg>
