<svg width="12" height="13" viewBox="0 0 12 13" fill="none" xmlns="http://www.w3.org/2000/svg">
<path fill-rule="evenodd" clip-rule="evenodd" d="M11.6053 7.47693C11.8942 7.81122 11.8574 8.31642 11.5231 8.60531C11.1888 8.89421 10.6836 8.8574 10.3947 8.52311L5.83758 3.24987L1.62394 8.50072C1.34741 8.84531 0.843895 8.90049 0.499301 8.62396C0.154707 8.34744 0.0995264 7.84392 0.376053 7.49933L5.79204 0.750173L11.6053 7.47693ZM11.6053 11.4769C11.8942 11.8112 11.8574 12.3164 11.5231 12.6053C11.1888 12.8942 10.6836 12.8574 10.3947 12.5231L5.83758 7.24987L1.62394 12.5007C1.34741 12.8453 0.843895 12.9005 0.499301 12.624C0.154707 12.3474 0.0995264 11.8439 0.376053 11.4993L5.79204 4.75017L11.6053 11.4769Z" fill="#AB76B4"/>
</svg>
