<svg viewBox="0 0 29 30" xmlns="http://www.w3.org/2000/svg">
<path d="M20.6949 19.9978L19.9438 18.5334C19.2183 17.1189 17.2932 16.8854 16.2506 18.0854C15.991 18.3842 15.5122 18.3278 15.3291 17.977L12.256 12.0884C12.0805 11.7521 12.2878 11.3429 12.6628 11.2854C14.1862 11.0519 15.0106 9.37184 14.2633 8.02398L13.57 6.77369C13.0725 5.87642 11.8723 5.67011 11.1038 6.34977L9.92613 7.39117C7.82729 9.24721 7.2924 12.3087 8.63756 14.7665L11.4055 19.8238C12.7155 22.2173 15.4755 23.4255 18.1227 22.7643L19.6076 22.3934C20.6569 22.1313 21.1885 20.9602 20.6949 19.9978Z"/>
</svg>
